<?xml version="1.0" encoding="UTF-8" standalone="no"?>
<!-- Created with Inkscape (http://www.inkscape.org/) -->

<svg
   version="1.1"
   id="svg1"
   width="77.146637"
   height="50.330704"
   viewBox="0 0 77.146636 50.330704"
   sodipodi:docname="Figure1.pdf"
   xmlns:inkscape="http://www.inkscape.org/namespaces/inkscape"
   xmlns:sodipodi="http://sodipodi.sourceforge.net/DTD/sodipodi-0.dtd"
   xmlns="http://www.w3.org/2000/svg"
   xmlns:svg="http://www.w3.org/2000/svg">
  <defs
     id="defs1">
    <clipPath
       clipPathUnits="userSpaceOnUse"
       id="clipPath46">
      <path
         d="M 0,0 H 766 V 284 H 0 Z"
         id="path46" />
    </clipPath>
    <clipPath
       clipPathUnits="userSpaceOnUse"
       id="clipPath8426">
      <path
         d="M 0,0 H 766 V 284 H 0 Z"
         id="path8426" />
    </clipPath>
    <clipPath
       clipPathUnits="userSpaceOnUse"
       id="clipPath8428">
      <path
         d="M 0,0 H 766 V 284 H 0 Z"
         id="path8428" />
    </clipPath>
    <clipPath
       clipPathUnits="userSpaceOnUse"
       id="clipPath8430">
      <path
         d="M 0,0 H 766 V 284 H 0 Z"
         id="path8430" />
    </clipPath>
    <clipPath
       clipPathUnits="userSpaceOnUse"
       id="clipPath8432">
      <path
         d="M 0,0 H 766 V 284 H 0 Z"
         id="path8432" />
    </clipPath>
    <clipPath
       clipPathUnits="userSpaceOnUse"
       id="clipPath8434">
      <path
         d="M 0,0 H 766 V 284 H 0 Z"
         id="path8434" />
    </clipPath>
    <clipPath
       clipPathUnits="userSpaceOnUse"
       id="clipPath8436">
      <path
         d="M 0,0 H 766 V 284 H 0 Z"
         id="path8436" />
    </clipPath>
    <clipPath
       clipPathUnits="userSpaceOnUse"
       id="clipPath8438">
      <path
         d="M 0,0 H 766 V 284 H 0 Z"
         id="path8438" />
    </clipPath>
    <clipPath
       clipPathUnits="userSpaceOnUse"
       id="clipPath8440">
      <path
         d="M 0,0 H 766 V 284 H 0 Z"
         id="path8440" />
    </clipPath>
    <clipPath
       clipPathUnits="userSpaceOnUse"
       id="clipPath8442">
      <path
         d="M 0,0 H 766 V 284 H 0 Z"
         id="path8442" />
    </clipPath>
    <clipPath
       clipPathUnits="userSpaceOnUse"
       id="clipPath8444">
      <path
         d="M 0,0 H 766 V 284 H 0 Z"
         id="path8444" />
    </clipPath>
    <clipPath
       clipPathUnits="userSpaceOnUse"
       id="clipPath8446">
      <path
         d="M 0,0 H 766 V 284 H 0 Z"
         id="path8446" />
    </clipPath>
    <clipPath
       clipPathUnits="userSpaceOnUse"
       id="clipPath8448">
      <path
         d="M 0,0 H 766 V 284 H 0 Z"
         id="path8448" />
    </clipPath>
    <clipPath
       clipPathUnits="userSpaceOnUse"
       id="clipPath8450">
      <path
         d="M 0,0 H 766 V 284 H 0 Z"
         id="path8450" />
    </clipPath>
    <clipPath
       clipPathUnits="userSpaceOnUse"
       id="clipPath8452">
      <path
         d="M 0,0 H 766 V 284 H 0 Z"
         id="path8452" />
    </clipPath>
    <clipPath
       clipPathUnits="userSpaceOnUse"
       id="clipPath8454">
      <path
         d="M 0,0 H 766 V 284 H 0 Z"
         id="path8454" />
    </clipPath>
    <clipPath
       clipPathUnits="userSpaceOnUse"
       id="clipPath8456">
      <path
         d="M 0,0 H 766 V 284 H 0 Z"
         id="path8456" />
    </clipPath>
    <clipPath
       clipPathUnits="userSpaceOnUse"
       id="clipPath8458">
      <path
         d="M 0,0 H 766 V 284 H 0 Z"
         id="path8458" />
    </clipPath>
  </defs>
  <sodipodi:namedview
     id="namedview1"
     pagecolor="#ffffff"
     bordercolor="#000000"
     borderopacity="0.25"
     inkscape:showpageshadow="2"
     inkscape:pageopacity="0.0"
     inkscape:pagecheckerboard="0"
     inkscape:deskcolor="#d1d1d1" />
  <g
     id="g1"
     inkscape:groupmode="layer"
     inkscape:label=""
     transform="translate(-299.43201,-110.27863)">
    <g
       id="g47">
      <path
         d="M 18.219,0.48 H 757.145 V 284.132 H 18.219 Z"
         style="fill:#ffffff;fill-opacity:1;fill-rule:nonzero;stroke:none"
         transform="scale(1.3333333)"
         clip-path="url(#clipPath46)"
         id="path47" />
    </g>
    <g
       id="g8427">
      <path
         d="m 246.855,101.539 c -0.261,0.074 -3.14,0.887 -3.117,1.211 0.012,0.156 0.106,0.285 0.203,0.383 0.727,0.75 1.77,0.699 2.715,0.73 0.946,0.028 2.356,0.614 2.789,1.649 -5.808,0.093 -11.922,0.293 -17.394,2.683 -0.863,0.375 -1.856,1.743 -1.946,2.864 -0.074,0.898 0.813,0.847 1.5,1.168 0.692,0.32 1.36,0.316 2.098,0.312 3.953,-0.031 7.649,2.086 11.598,2.332 3.285,0.207 13.965,1.024 17.254,0.817 7.914,-0.493 8.707,-0.54 16.199,-3.731 0.332,-0.141 0.672,-0.297 0.93,-0.594 0.605,-0.699 0.535,-1.972 0.046,-2.801 -0.48,-0.828 -1.261,-1.3 -2.031,-1.683 -3.992,-1.996 -8.383,-2.356 -12.687,-2.586 -1.457,-0.078 -5.403,-0.141 -6.34,-1.754 0.808,-0.234 2.914,-0.449 2.098,-0.934 -0.797,-0.48 -1.844,-0.601 -2.715,-0.703 -2.953,-0.343 -4.938,-0.343 -7.879,0.09 -1.625,0.238 -1.727,0.09 -3.321,0.547"
         style="fill:#a6ceca;fill-opacity:1;fill-rule:nonzero;stroke:none"
         transform="scale(1.3333333)"
         clip-path="url(#clipPath8426)"
         id="path8427" />
    </g>
    <g
       id="g8429">
      <path
         d="m 263.227,82.836 c 0.785,0.359 1.296,1.453 1.156,2.469 1.336,-0.051 2.664,0.859 3.332,2.277 0.101,0.215 0.191,0.48 0.105,0.703 -0.062,0.164 -0.195,0.262 -0.324,0.344 -1.101,0.703 -1.457,1.008 -2.691,0.867 -0.321,0.356 -0.227,1.043 0.074,1.426 0.301,0.383 -0.18,0.551 0.226,0.738 0.762,0.356 1.493,0.824 2.161,1.399 0.285,0.246 0.597,0.621 0.5,1.035 -0.047,0.207 -0.188,0.363 -0.332,0.484 -0.879,0.762 -2.118,0.82 -3.043,0.156 -0.368,-0.265 -0.774,-0.644 -1.164,-0.445 -0.196,0.102 -0.329,0.328 -0.473,0.52 -1.922,2.535 -0.449,2.011 -2.676,2.3 -1.758,0.231 -3.285,-0.703 -4.957,-0.507 -0.078,-1.329 0.024,-3.02 1.043,-3.473 0.324,-0.145 0.68,-0.121 1.016,-0.211 0.336,-0.094 0.683,-0.371 0.715,-0.793 -0.981,-0.23 -1.965,0.492 -2.957,0.387 -0.856,-0.09 -1.583,-0.762 -2.254,-1.414 -0.723,-0.696 2.125,-1.68 2.375,-2.766 0.211,-0.91 0.382,-0.68 0.976,-0.605 2.223,0.281 1.508,-0.383 1.453,-2.508 -0.043,-1.692 0.586,-1.879 1.836,-1.711 0.371,0.051 0.914,0.265 1.285,0.191 0.469,-0.09 0.434,-0.273 0.84,-0.504 0.602,-0.343 1.09,-0.675 1.778,-0.359"
         style="fill:#64b264;fill-opacity:1;fill-rule:nonzero;stroke:none"
         transform="scale(1.3333333)"
         clip-path="url(#clipPath8428)"
         id="path8429" />
    </g>
    <g
       id="g8431">
      <path
         d="m 260.211,91.301 h 0.754 v 12.02 h -0.754 z"
         style="fill:#64b264;fill-opacity:1;fill-rule:nonzero;stroke:none"
         transform="scale(1.3333333)"
         clip-path="url(#clipPath8430)"
         id="path8431" />
    </g>
    <g
       id="g8433">
      <path
         d="m 271.867,87.457 c -0.539,0.316 -0.89,1.27 -0.797,2.156 -0.918,-0.043 -1.836,0.754 -2.297,1.992 -0.066,0.188 -0.128,0.418 -0.07,0.618 0.043,0.14 0.133,0.226 0.223,0.297 0.758,0.613 1.633,0.878 2.484,0.757 0.223,0.313 0.156,0.911 -0.051,1.246 -0.207,0.336 -0.507,0.485 -0.785,0.649 -0.527,0.308 -1.027,0.719 -1.488,1.219 -0.199,0.214 -0.414,0.543 -0.348,0.906 0.032,0.183 0.129,0.316 0.231,0.426 0.605,0.66 1.461,0.715 2.097,0.132 0.254,-0.23 0.536,-0.562 0.801,-0.386 0.137,0.09 0.227,0.285 0.324,0.453 1.329,2.215 0.313,1.758 1.848,2.012 1.211,0.199 2.262,-0.618 3.414,-0.446 0.055,-1.16 -0.015,-2.64 -0.715,-3.035 -0.222,-0.125 -0.468,-0.105 -0.703,-0.183 -0.23,-0.082 -0.473,-0.325 -0.492,-0.692 0.676,-0.203 1.355,0.426 2.039,0.336 0.59,-0.078 1.09,-0.668 1.551,-1.234 0.5,-0.61 -1.465,-1.469 -1.637,-2.418 -0.144,-0.797 -0.262,-0.594 -0.672,-0.528 -1.531,0.243 -1.039,-0.336 -1,-2.195 0.031,-1.477 -0.406,-1.644 -1.265,-1.496 -0.258,0.043 -0.633,0.234 -0.887,0.172 -0.324,-0.082 -0.301,-0.242 -0.578,-0.445 -0.418,-0.301 -0.754,-0.59 -1.227,-0.313"
         style="fill:#64b264;fill-opacity:1;fill-rule:nonzero;stroke:none"
         transform="scale(1.3333333)"
         clip-path="url(#clipPath8432)"
         id="path8433" />
    </g>
    <g
       id="g8435">
      <path
         d="m 273.043,95.754 h 0.52 v 8.898 h -0.52 z"
         style="fill:#64b264;fill-opacity:1;fill-rule:nonzero;stroke:none"
         transform="scale(1.3333333)"
         clip-path="url(#clipPath8434)"
         id="path8435" />
    </g>
    <g
       id="g8437">
      <path
         d="m 241.652,93.367 h 0.539 v 8.59 h -0.539 z"
         style="fill:#2e6d6e;fill-opacity:1;fill-rule:nonzero;stroke:none"
         transform="scale(1.3333333)"
         clip-path="url(#clipPath8436)"
         id="path8437" />
    </g>
    <g
       id="g8439">
      <path
         d="m 237.871,89.996 4.32,-5.308 4.321,5.308 z"
         style="fill:#2e6d6e;fill-opacity:1;fill-rule:nonzero;stroke:none"
         transform="scale(1.3333333)"
         clip-path="url(#clipPath8438)"
         id="path8439" />
    </g>
    <g
       id="g8441">
      <path
         d="m 237.027,94.328 5.164,-6.344 5.164,6.344 z"
         style="fill:#2e6d6e;fill-opacity:1;fill-rule:nonzero;stroke:none"
         transform="scale(1.3333333)"
         clip-path="url(#clipPath8440)"
         id="path8441" />
    </g>
    <g
       id="g8443">
      <path
         d="m 235.961,99.246 6.23,-7.66 6.231,7.66 z"
         style="fill:#2e6d6e;fill-opacity:1;fill-rule:nonzero;stroke:none"
         transform="scale(1.3333333)"
         clip-path="url(#clipPath8442)"
         id="path8443" />
    </g>
    <g
       id="g8445">
      <path
         d="m 231.066,98.016 h 0.586 v 9.348 h -0.586 z"
         style="fill:#2e6d6e;fill-opacity:1;fill-rule:nonzero;stroke:none"
         transform="scale(1.3333333)"
         clip-path="url(#clipPath8444)"
         id="path8445" />
    </g>
    <g
       id="g8447">
      <path
         d="m 226.656,95.516 4.703,-5.782 4.7,5.782 z"
         style="fill:#2e6d6e;fill-opacity:1;fill-rule:nonzero;stroke:none"
         transform="scale(1.3333333)"
         clip-path="url(#clipPath8446)"
         id="path8447" />
    </g>
    <g
       id="g8449">
      <path
         d="m 225.734,100.23 5.625,-6.91 5.621,6.91 z"
         style="fill:#2e6d6e;fill-opacity:1;fill-rule:nonzero;stroke:none"
         transform="scale(1.3333333)"
         clip-path="url(#clipPath8448)"
         id="path8449" />
    </g>
    <g
       id="g8451">
      <path
         d="m 224.574,105.582 6.785,-8.336 6.782,8.336 z"
         style="fill:#2e6d6e;fill-opacity:1;fill-rule:nonzero;stroke:none"
         transform="scale(1.3333333)"
         clip-path="url(#clipPath8450)"
         id="path8451" />
    </g>
    <g
       id="g8453">
      <path
         d="m 275.457,117.84 c -0.648,-1.012 -1.746,-1.735 -2.266,-2.813 -0.515,-1.07 -0.433,-2.433 -1.32,-3.257 1.672,1.207 2.766,2.968 3.82,4.687 0.188,0.305 0.34,0.773 0.016,0.953 -0.883,-1.152 -0.988,-2.789 -0.262,-4.039 -0.847,-0.488 -0.933,-1.82 -0.148,-2.402 0.223,0.168 0.281,0.457 0.332,0.719 0.305,1.765 0.613,3.531 0.926,5.296 0.164,-0.664 0.336,-1.336 0.664,-1.941 0.984,-1.801 3.156,-2.691 5.215,-3.27 -1.981,1.731 -3.957,3.461 -5.934,5.192 0.297,-0.258 2.281,-0.035 2.746,-0.067 0.957,-0.066 1.969,-0.121 2.899,-0.339 -1.833,-1.344 -4.223,0.386 -6.083,0.839 -1.933,0.473 -3.882,-0.203 -5.628,-0.984 1.73,-0.461 3.8,0.231 5.023,1.426"
         style="fill:#a1ba20;fill-opacity:1;fill-rule:nonzero;stroke:none"
         transform="scale(1.3333333)"
         clip-path="url(#clipPath8452)"
         id="path8453" />
    </g>
    <g
       id="g8455">
      <path
         d="m 263.262,120.457 c -0.649,-0.98 -1.75,-1.684 -2.266,-2.727 -0.519,-1.039 -0.434,-2.359 -1.32,-3.16 1.668,1.168 2.762,2.879 3.816,4.547 0.188,0.297 0.34,0.75 0.016,0.926 -0.883,-1.121 -0.988,-2.711 -0.262,-3.918 -0.848,-0.477 -0.934,-1.766 -0.148,-2.328 0.222,0.156 0.285,0.437 0.332,0.695 0.308,1.711 0.617,3.422 0.925,5.133 0.165,-0.641 0.336,-1.293 0.668,-1.879 0.981,-1.746 3.153,-2.613 5.211,-3.176 -1.98,1.68 -3.957,3.364 -5.933,5.039 0.297,-0.25 2.285,-0.035 2.746,-0.066 0.957,-0.063 1.969,-0.117 2.898,-0.328 -1.832,-1.305 -4.222,0.375 -6.082,0.816 -1.933,0.457 -3.883,-0.199 -5.629,-0.957 1.731,-0.445 3.801,0.223 5.028,1.383"
         style="fill:#a1ba20;fill-opacity:1;fill-rule:nonzero;stroke:none"
         transform="scale(1.3333333)"
         clip-path="url(#clipPath8454)"
         id="path8455" />
    </g>
    <g
       id="g8457">
      <path
         d="m 266.156,104.922 c -0.562,-1.168 -1.519,-2.008 -1.972,-3.25 -0.45,-1.242 -0.375,-2.82 -1.149,-3.777 1.453,1.398 2.406,3.437 3.324,5.425 0.161,0.356 0.293,0.899 0.012,1.106 -0.766,-1.332 -0.859,-3.231 -0.226,-4.672 -0.739,-0.57 -0.813,-2.106 -0.129,-2.781 0.191,0.191 0.246,0.527 0.285,0.832 0.269,2.043 0.539,4.086 0.808,6.129 0.145,-0.77 0.293,-1.543 0.579,-2.246 0.855,-2.086 2.746,-3.118 4.531,-3.786 -1.719,2 -3.438,4.008 -5.157,6.012 0.258,-0.301 1.985,-0.047 2.387,-0.082 0.832,-0.074 1.715,-0.141 2.52,-0.394 -1.59,-1.551 -3.668,0.449 -5.289,0.976 -1.68,0.543 -3.375,-0.238 -4.895,-1.141 1.508,-0.531 3.305,0.266 4.371,1.649"
         style="fill:#a1ba20;fill-opacity:1;fill-rule:nonzero;stroke:none"
         transform="scale(1.3333333)"
         clip-path="url(#clipPath8456)"
         id="path8457" />
    </g>
    <g
       id="g8459">
      <path
         d="m 231.676,118.266 c -0.653,-1.313 -1.75,-2.258 -2.27,-3.657 -0.515,-1.394 -0.429,-3.171 -1.32,-4.246 1.672,1.571 2.766,3.867 3.82,6.102 0.188,0.398 0.34,1.008 0.016,1.242 -0.883,-1.5 -0.988,-3.633 -0.262,-5.258 -0.848,-0.637 -0.933,-2.367 -0.148,-3.125 0.222,0.215 0.285,0.59 0.332,0.934 l 0.926,6.894 c 0.164,-0.863 0.335,-1.738 0.664,-2.527 0.984,-2.344 3.156,-3.504 5.214,-4.258 -1.98,2.254 -3.957,4.508 -5.933,6.762 0.297,-0.336 2.281,-0.047 2.746,-0.09 0.957,-0.082 1.969,-0.156 2.898,-0.441 -1.832,-1.75 -4.222,0.504 -6.082,1.093 -1.933,0.618 -3.882,-0.265 -5.629,-1.281 1.731,-0.598 3.801,0.297 5.028,1.856"
         style="fill:#a1ba20;fill-opacity:1;fill-rule:nonzero;stroke:none"
         transform="scale(1.3333333)"
         clip-path="url(#clipPath8458)"
         id="path8459" />
    </g>
    <path
       id="path8526"
       d="m 323.336,180.988 c 0.164,0.129 0.609,0.27 1.019,0.27 0.961,0 1.704,-0.66 1.704,-1.715 0,-0.672 -0.321,-1.234 -1.059,-1.75 -0.574,-0.41 -0.891,-0.645 -0.891,-1.246 0,-0.422 0.282,-0.867 0.879,-0.867 0.317,0 0.563,0.093 0.715,0.211 l 0.18,-0.598 c -0.145,-0.105 -0.485,-0.223 -0.86,-0.223 -0.961,0 -1.605,0.668 -1.605,1.594 0,0.789 0.668,1.352 1.148,1.68 0.469,0.363 0.797,0.707 0.797,1.269 0,0.61 -0.375,1.02 -1.008,1.02 -0.304,0 -0.667,-0.106 -0.867,-0.235 z m 5.906,0.211 c -0.047,-0.285 -0.047,-0.66 -0.047,-0.988 v -1.891 c 0,-0.984 -0.375,-1.562 -1.257,-1.562 -0.434,0 -0.833,0.156 -1.008,0.297 l 0.152,0.48 c 0.199,-0.129 0.445,-0.223 0.715,-0.223 0.555,0 0.695,0.411 0.695,0.985 v 0.141 c -0.988,0.011 -1.855,0.496 -1.855,1.585 0,0.75 0.445,1.247 1.031,1.247 0.375,0 0.684,-0.2 0.871,-0.532 h 0.023 l 0.047,0.461 z m -0.726,-1.375 c 0,0.071 0,0.164 -0.024,0.246 -0.082,0.434 -0.34,0.657 -0.648,0.657 -0.246,0 -0.528,-0.211 -0.528,-0.774 0,-0.949 0.836,-1.008 1.2,-1.008 z m 1.644,1.375 h 0.695 v -2.773 c 0,-0.129 0.012,-0.258 0.024,-0.375 0.082,-0.457 0.375,-0.703 0.644,-0.703 0.516,0 0.61,0.504 0.61,0.996 v 2.855 h 0.679 v -2.808 c 0,-0.141 0.012,-0.282 0.036,-0.399 0.093,-0.398 0.351,-0.644 0.632,-0.644 0.528,0 0.61,0.55 0.61,1.113 v 2.738 h 0.691 v -2.902 c 0,-1.102 -0.457,-1.539 -1.043,-1.539 -0.234,0 -0.433,0.062 -0.609,0.18 -0.164,0.105 -0.317,0.281 -0.434,0.492 h -0.011 c -0.164,-0.469 -0.504,-0.672 -0.914,-0.672 -0.458,0 -0.786,0.262 -0.985,0.613 h -0.012 l -0.035,-0.539 h -0.613 c 0.012,0.352 0.035,0.621 0.035,1.125 z m 5.586,1.723 h 0.695 v -2.16 h 0.012 c 0.117,0.25 0.352,0.508 0.762,0.508 0.68,0 1.347,-0.649 1.347,-2.266 0,-1.434 -0.503,-2.246 -1.253,-2.246 -0.352,0 -0.692,0.168 -0.926,0.637 h -0.012 l -0.035,-0.563 h -0.625 c 0,0.305 0.035,0.691 0.035,1.359 z m 0.695,-4.438 c 0,-0.117 0,-0.222 0.012,-0.339 0.047,-0.387 0.328,-0.786 0.645,-0.786 0.55,0 0.761,0.75 0.761,1.657 0,0.879 -0.175,1.675 -0.75,1.675 -0.187,0 -0.504,-0.117 -0.644,-0.738 -0.024,-0.094 -0.024,-0.223 -0.024,-0.363 z m 2.899,2.715 h 0.703 v -6.234 h -0.703 z m 4.242,-2.113 c 0.012,-0.117 0.012,-0.238 0.012,-0.402 0,-0.985 -0.352,-1.926 -1.242,-1.926 -0.879,0 -1.477,0.883 -1.477,2.304 0,1.336 0.539,2.196 1.594,2.196 0.34,0 0.703,-0.082 0.949,-0.211 l -0.106,-0.52 c -0.175,0.106 -0.421,0.176 -0.726,0.176 -0.504,0 -1.02,-0.293 -1.031,-1.617 z m -2.016,-0.52 c 0.024,-0.597 0.258,-1.265 0.704,-1.265 0.339,0 0.668,0.387 0.656,1.265 z m 2.481,2.434 c 0.187,0.152 0.543,0.258 0.871,0.258 0.703,0 1.301,-0.426 1.301,-1.305 0,-0.598 -0.399,-0.996 -0.903,-1.328 -0.433,-0.293 -0.539,-0.457 -0.539,-0.75 0,-0.281 0.188,-0.551 0.563,-0.551 0.234,0 0.422,0.082 0.586,0.188 l 0.187,-0.528 c -0.187,-0.105 -0.445,-0.226 -0.785,-0.226 -0.68,0 -1.199,0.508 -1.199,1.211 0,0.504 0.309,0.879 0.871,1.246 0.445,0.293 0.562,0.527 0.562,0.855 0,0.387 -0.246,0.633 -0.644,0.633 -0.27,0 -0.539,-0.129 -0.707,-0.223 z m 6.656,0.199 c -0.047,-0.285 -0.047,-0.66 -0.047,-0.988 v -1.891 c 0,-0.984 -0.375,-1.562 -1.254,-1.562 -0.433,0 -0.832,0.156 -1.007,0.297 l 0.152,0.48 c 0.199,-0.129 0.445,-0.223 0.715,-0.223 0.55,0 0.691,0.411 0.691,0.985 v 0.141 c -0.984,0.011 -1.851,0.496 -1.851,1.585 0,0.75 0.445,1.247 1.031,1.247 0.375,0 0.679,-0.2 0.867,-0.532 h 0.023 l 0.047,0.461 z m -0.726,-1.375 c 0,0.071 0,0.164 -0.024,0.246 -0.082,0.434 -0.34,0.657 -0.644,0.657 -0.247,0 -0.528,-0.211 -0.528,-0.774 0,-0.949 0.832,-1.008 1.196,-1.008 z m 3.691,0.727 c -0.164,0.082 -0.316,0.117 -0.504,0.117 -0.633,0 -1.031,-0.609 -1.031,-1.629 0,-0.859 0.316,-1.68 1.008,-1.68 0.234,0 0.41,0.071 0.504,0.118 l 0.128,-0.575 c -0.117,-0.07 -0.375,-0.132 -0.609,-0.132 -1.09,0 -1.723,1.023 -1.723,2.269 0,1.441 0.645,2.219 1.594,2.219 0.305,0 0.574,-0.082 0.727,-0.164 z m 0.68,0.648 h 0.691 v -2.422 c 0,-0.14 0.012,-0.281 0.023,-0.398 0.071,-0.504 0.399,-0.902 0.844,-0.902 0.047,0 0.094,0 0.141,0.011 v -0.718 c -0.047,0 -0.094,-0.012 -0.141,-0.012 -0.41,0 -0.773,0.344 -0.926,0.765 h -0.011 l -0.035,-0.691 h -0.622 c 0,0.328 0.036,0.762 0.036,1.125 z m 3.386,-4.441 c -0.754,0 -1.468,0.672 -1.468,2.269 0,1.524 0.632,2.243 1.422,2.243 0.667,0 1.453,-0.567 1.453,-2.254 0,-1.528 -0.633,-2.258 -1.407,-2.258 z m -0.035,0.566 c 0.621,0 0.739,1.02 0.739,1.692 0,0.679 -0.118,1.699 -0.715,1.699 -0.637,0 -0.766,-0.973 -0.766,-1.699 0,-0.672 0.117,-1.692 0.742,-1.692 z m 1.926,3.676 c 0.187,0.152 0.539,0.258 0.867,0.258 0.703,0 1.301,-0.426 1.301,-1.305 0,-0.598 -0.398,-0.996 -0.902,-1.328 -0.434,-0.293 -0.539,-0.457 -0.539,-0.75 0,-0.281 0.187,-0.551 0.562,-0.551 0.234,0 0.422,0.082 0.586,0.188 l 0.188,-0.528 c -0.188,-0.105 -0.446,-0.226 -0.786,-0.226 -0.679,0 -1.195,0.508 -1.195,1.211 0,0.504 0.305,0.879 0.867,1.246 0.446,0.293 0.563,0.527 0.563,0.855 0,0.387 -0.246,0.633 -0.645,0.633 -0.269,0 -0.539,-0.129 -0.703,-0.223 z m 2.602,0 c 0.187,0.152 0.539,0.258 0.871,0.258 0.703,0 1.3,-0.426 1.3,-1.305 0,-0.598 -0.398,-0.996 -0.902,-1.328 -0.434,-0.293 -0.539,-0.457 -0.539,-0.75 0,-0.281 0.188,-0.551 0.563,-0.551 0.234,0 0.421,0.082 0.585,0.188 l 0.188,-0.528 c -0.188,-0.105 -0.445,-0.226 -0.785,-0.226 -0.684,0 -1.199,0.508 -1.199,1.211 0,0.504 0.304,0.879 0.871,1.246 0.445,0.293 0.562,0.527 0.562,0.855 0,0.387 -0.246,0.633 -0.644,0.633 -0.274,0 -0.543,-0.129 -0.707,-0.223 z m -33.286,8.57 c -0.164,0.082 -0.316,0.118 -0.503,0.118 -0.633,0 -1.032,-0.614 -1.032,-1.633 0,-0.856 0.317,-1.68 1.008,-1.68 0.234,0 0.41,0.07 0.504,0.117 l 0.129,-0.574 c -0.117,-0.07 -0.375,-0.129 -0.609,-0.129 -1.09,0 -1.723,1.02 -1.723,2.266 0,1.445 0.644,2.218 1.594,2.218 0.304,0 0.574,-0.082 0.726,-0.164 z m 0.68,0.645 h 0.703 v -6.235 h -0.703 z m 2.426,0 v -4.367 h -0.703 v 4.367 z m -0.363,-5.942 c -0.223,0 -0.411,0.176 -0.411,0.446 0,0.269 0.176,0.461 0.399,0.461 0.258,0 0.433,-0.192 0.422,-0.461 0,-0.27 -0.164,-0.446 -0.41,-0.446 z m 1.316,5.942 h 0.691 v -2.77 c 0,-0.129 0.012,-0.257 0.024,-0.379 0.082,-0.457 0.375,-0.703 0.644,-0.703 0.516,0 0.61,0.504 0.61,1 v 2.852 h 0.683 v -2.805 c 0,-0.14 0.012,-0.285 0.036,-0.402 0.093,-0.399 0.351,-0.645 0.632,-0.645 0.528,0 0.61,0.551 0.61,1.117 v 2.735 h 0.691 v -2.899 c 0,-1.105 -0.457,-1.539 -1.043,-1.539 -0.234,0 -0.433,0.059 -0.609,0.176 -0.164,0.106 -0.317,0.281 -0.434,0.492 h -0.012 c -0.164,-0.468 -0.507,-0.668 -0.918,-0.668 -0.457,0 -0.785,0.258 -0.984,0.61 h -0.012 l -0.035,-0.539 h -0.609 c 0.012,0.351 0.035,0.621 0.035,1.125 z m 7.941,0 c -0.046,-0.281 -0.046,-0.656 -0.046,-0.988 v -1.887 c 0,-0.988 -0.375,-1.563 -1.258,-1.563 -0.434,0 -0.832,0.153 -1.008,0.293 l 0.152,0.481 c 0.199,-0.129 0.446,-0.223 0.715,-0.223 0.555,0 0.695,0.41 0.695,0.988 v 0.141 c -0.988,0.012 -1.855,0.492 -1.855,1.582 0,0.754 0.445,1.246 1.031,1.246 0.375,0 0.684,-0.199 0.871,-0.527 h 0.024 l 0.047,0.457 z m -0.726,-1.375 c 0,0.07 0,0.164 -0.024,0.246 -0.082,0.437 -0.339,0.66 -0.648,0.66 -0.246,0 -0.527,-0.211 -0.527,-0.777 0,-0.949 0.836,-1.008 1.199,-1.008 z m 1.73,-3.945 v 0.953 h -0.539 v 0.539 h 0.539 v 2.523 c 0,0.602 0.082,0.895 0.258,1.094 0.164,0.187 0.41,0.269 0.68,0.269 0.222,0 0.39,-0.035 0.519,-0.082 l -0.023,-0.527 c -0.082,0.024 -0.176,0.024 -0.285,0.024 -0.258,0 -0.457,-0.153 -0.457,-0.719 v -2.582 h 0.836 v -0.539 h -0.836 v -1.153 z m 4.582,3.207 c 0.012,-0.118 0.012,-0.235 0.012,-0.399 0,-0.988 -0.351,-1.926 -1.242,-1.926 -0.879,0 -1.477,0.879 -1.477,2.301 0,1.34 0.539,2.195 1.594,2.195 0.34,0 0.703,-0.082 0.949,-0.211 l -0.105,-0.515 c -0.176,0.105 -0.422,0.176 -0.727,0.176 -0.504,0 -1.019,-0.293 -1.031,-1.621 z m -2.015,-0.516 c 0.023,-0.602 0.258,-1.27 0.703,-1.27 0.34,0 0.668,0.387 0.656,1.27 z m 3.84,2.629 h 2.496 v -0.574 h -1.711 v -0.024 c 0.105,-0.199 0.234,-0.426 0.351,-0.648 l 1.36,-2.664 v -0.457 h -2.321 v 0.574 h 1.559 v 0.023 c -0.106,0.2 -0.234,0.422 -0.352,0.645 l -1.382,2.703 z m 4.328,-4.438 c -0.75,0 -1.465,0.668 -1.465,2.266 0,1.527 0.633,2.242 1.418,2.242 0.668,0 1.457,-0.562 1.457,-2.254 0,-1.527 -0.637,-2.254 -1.41,-2.254 z m -0.035,0.563 c 0.621,0 0.738,1.023 0.738,1.691 0,0.68 -0.117,1.703 -0.715,1.703 -0.633,0 -0.762,-0.976 -0.762,-1.703 0,-0.668 0.117,-1.691 0.739,-1.691 z m 2.207,3.875 h 0.703 v -2.746 c 0,-0.153 0,-0.281 0.023,-0.391 0.094,-0.469 0.363,-0.715 0.656,-0.715 0.504,0 0.598,0.528 0.598,1.035 v 2.817 h 0.703 v -2.934 c 0,-1.047 -0.457,-1.504 -1.055,-1.504 -0.457,0 -0.808,0.246 -1.007,0.598 h -0.012 l -0.035,-0.527 h -0.61 c 0.012,0.351 0.036,0.621 0.036,1.125 z m 6.171,-2.113 c 0.012,-0.118 0.012,-0.235 0.012,-0.399 0,-0.988 -0.351,-1.926 -1.242,-1.926 -0.883,0 -1.481,0.879 -1.481,2.301 0,1.34 0.54,2.195 1.598,2.195 0.34,0 0.703,-0.082 0.949,-0.211 l -0.105,-0.515 c -0.176,0.105 -0.422,0.176 -0.727,0.176 -0.504,0 -1.023,-0.293 -1.035,-1.621 z m -2.019,-0.516 c 0.023,-0.602 0.258,-1.27 0.707,-1.27 0.34,0 0.668,0.387 0.656,1.27 z m -32.223,11.644 c -0.047,-0.281 -0.047,-0.656 -0.047,-0.984 v -1.891 c 0,-0.988 -0.375,-1.562 -1.254,-1.562 -0.433,0 -0.832,0.152 -1.011,0.293 l 0.152,0.484 c 0.203,-0.132 0.449,-0.226 0.719,-0.226 0.551,0 0.691,0.414 0.691,0.988 v 0.141 c -0.984,0.011 -1.855,0.492 -1.855,1.586 0,0.75 0.445,1.242 1.035,1.242 0.375,0 0.68,-0.199 0.867,-0.528 h 0.024 l 0.046,0.457 z m -0.726,-1.371 c 0,0.071 0,0.164 -0.024,0.246 -0.082,0.434 -0.34,0.657 -0.644,0.657 -0.246,0 -0.528,-0.211 -0.528,-0.774 0,-0.953 0.832,-1.011 1.196,-1.011 z m 1.648,1.371 h 0.703 v -2.746 c 0,-0.152 0,-0.281 0.024,-0.386 0.093,-0.469 0.363,-0.719 0.656,-0.719 0.504,0 0.598,0.531 0.598,1.035 v 2.816 h 0.703 v -2.933 c 0,-1.047 -0.457,-1.504 -1.055,-1.504 -0.457,0 -0.809,0.246 -1.008,0.598 h -0.012 l -0.035,-0.528 h -0.609 c 0.012,0.352 0.035,0.625 0.035,1.129 z m 5.598,-6.234 v 2.324 h -0.024 c -0.175,-0.375 -0.48,-0.527 -0.8,-0.527 -0.668,0 -1.313,0.73 -1.313,2.277 0,1.434 0.539,2.231 1.277,2.231 0.461,0 0.766,-0.305 0.907,-0.621 h 0.035 l 0.035,0.55 h 0.598 c -0.012,-0.257 -0.036,-0.75 -0.036,-1.042 v -5.192 z m 0,4.699 c 0,0.106 -0.012,0.2 -0.035,0.282 -0.153,0.632 -0.446,0.75 -0.672,0.75 -0.504,0 -0.739,-0.739 -0.739,-1.657 0,-0.879 0.2,-1.679 0.786,-1.679 0.332,0 0.601,0.402 0.648,0.847 0.012,0.094 0.012,0.2 0.012,0.293 z m 5.101,0.891 c -0.164,0.082 -0.316,0.117 -0.504,0.117 -0.636,0 -1.035,-0.609 -1.035,-1.633 0,-0.855 0.317,-1.679 1.012,-1.679 0.234,0 0.41,0.074 0.504,0.121 l 0.129,-0.578 c -0.117,-0.071 -0.375,-0.129 -0.61,-0.129 -1.093,0 -1.726,1.023 -1.726,2.265 0,1.446 0.644,2.219 1.598,2.219 0.304,0 0.574,-0.082 0.726,-0.164 z m 1.903,-3.793 c -0.75,0 -1.465,0.672 -1.465,2.266 0,1.527 0.633,2.242 1.418,2.242 0.668,0 1.453,-0.563 1.453,-2.254 0,-1.524 -0.633,-2.254 -1.406,-2.254 z m -0.035,0.562 c 0.621,0 0.738,1.024 0.738,1.692 0,0.683 -0.117,1.703 -0.715,1.703 -0.633,0 -0.762,-0.973 -0.762,-1.703 0,-0.668 0.117,-1.692 0.739,-1.692 z m 2.207,3.875 h 0.703 v -2.746 c 0,-0.152 0,-0.281 0.023,-0.386 0.094,-0.469 0.363,-0.719 0.656,-0.719 0.504,0 0.602,0.531 0.602,1.035 v 2.816 h 0.703 v -2.933 c 0,-1.047 -0.457,-1.504 -1.059,-1.504 -0.457,0 -0.808,0.246 -1.007,0.598 h -0.012 l -0.035,-0.528 h -0.61 c 0.012,0.352 0.036,0.625 0.036,1.129 z m 3.757,-5.316 v 0.949 h -0.539 v 0.539 h 0.539 v 2.528 c 0,0.597 0.082,0.89 0.258,1.09 0.164,0.187 0.41,0.269 0.68,0.269 0.223,0 0.387,-0.035 0.516,-0.082 l -0.024,-0.527 c -0.082,0.023 -0.176,0.023 -0.281,0.023 -0.258,0 -0.457,-0.152 -0.457,-0.715 v -2.586 h 0.832 v -0.539 h -0.832 v -1.148 z m 2.836,5.316 v -4.367 h -0.703 v 4.367 z m -0.363,-5.941 c -0.223,0 -0.41,0.18 -0.41,0.449 0,0.27 0.176,0.457 0.398,0.457 0.258,0 0.434,-0.187 0.422,-0.457 0,-0.269 -0.164,-0.449 -0.41,-0.449 z m 1.316,5.941 h 0.704 v -2.746 c 0,-0.152 0,-0.281 0.023,-0.386 0.094,-0.469 0.363,-0.719 0.66,-0.719 0.504,0 0.598,0.531 0.598,1.035 v 2.816 h 0.703 v -2.933 c 0,-1.047 -0.457,-1.504 -1.055,-1.504 -0.461,0 -0.812,0.246 -1.011,0.598 h -0.012 l -0.035,-0.528 h -0.61 c 0.012,0.352 0.035,0.625 0.035,1.129 z m 6.172,-2.113 c 0.012,-0.117 0.012,-0.234 0.012,-0.398 0,-0.985 -0.355,-1.926 -1.246,-1.926 -0.879,0 -1.477,0.883 -1.477,2.301 0,1.34 0.539,2.195 1.594,2.195 0.34,0 0.703,-0.082 0.953,-0.211 l -0.109,-0.516 c -0.176,0.106 -0.422,0.176 -0.727,0.176 -0.504,0 -1.019,-0.293 -1.031,-1.621 z m -2.019,-0.515 c 0.023,-0.598 0.258,-1.27 0.703,-1.27 0.34,0 0.668,0.391 0.656,1.27 z m 2.765,2.628 h 0.704 v -2.746 c 0,-0.152 0,-0.281 0.023,-0.386 0.094,-0.469 0.363,-0.719 0.656,-0.719 0.504,0 0.598,0.531 0.598,1.035 v 2.816 h 0.707 v -2.933 c 0,-1.047 -0.461,-1.504 -1.059,-1.504 -0.457,0 -0.808,0.246 -1.008,0.598 h -0.011 l -0.035,-0.528 h -0.61 c 0.012,0.352 0.035,0.625 0.035,1.129 z m 3.758,-5.316 v 0.949 h -0.539 v 0.539 h 0.539 v 2.528 c 0,0.597 0.082,0.89 0.258,1.09 0.164,0.187 0.41,0.269 0.68,0.269 0.226,0 0.39,-0.035 0.519,-0.082 l -0.023,-0.527 c -0.082,0.023 -0.176,0.023 -0.281,0.023 -0.262,0 -0.461,-0.152 -0.461,-0.715 v -2.586 h 0.836 v -0.539 h -0.836 v -1.148 z M 331.012,95.367 c 0.164,0.133 0.609,0.274 1.019,0.274 0.965,0 1.703,-0.661 1.703,-1.715 0,-0.672 -0.316,-1.235 -1.058,-1.75 -0.574,-0.41 -0.891,-0.645 -0.891,-1.246 0,-0.422 0.281,-0.868 0.879,-0.868 0.32,0 0.566,0.094 0.719,0.211 l 0.176,-0.597 c -0.141,-0.106 -0.481,-0.223 -0.86,-0.223 -0.961,0 -1.605,0.668 -1.605,1.594 0,0.789 0.668,1.351 1.148,1.68 0.473,0.363 0.801,0.707 0.801,1.269 0,0.609 -0.379,1.02 -1.012,1.02 -0.304,0 -0.668,-0.106 -0.867,-0.235 z m 5.902,0.215 c -0.047,-0.285 -0.047,-0.66 -0.047,-0.988 v -1.891 c 0,-0.984 -0.375,-1.562 -1.254,-1.562 -0.433,0 -0.832,0.152 -1.008,0.297 l 0.153,0.48 c 0.199,-0.129 0.445,-0.223 0.715,-0.223 0.55,0 0.691,0.41 0.691,0.985 v 0.14 c -0.984,0.012 -1.852,0.492 -1.852,1.586 0,0.75 0.446,1.246 1.032,1.246 0.375,0 0.679,-0.203 0.867,-0.531 h 0.023 l 0.047,0.461 z m -0.726,-1.375 c 0,0.07 0,0.164 -0.024,0.246 -0.082,0.434 -0.34,0.656 -0.644,0.656 -0.247,0 -0.528,-0.211 -0.528,-0.773 0,-0.953 0.832,-1.012 1.196,-1.012 z m 1.648,1.375 h 0.691 v -2.773 c 0,-0.129 0.012,-0.258 0.024,-0.375 0.082,-0.457 0.375,-0.704 0.644,-0.704 0.516,0 0.61,0.504 0.61,0.997 v 2.855 h 0.679 v -2.809 c 0,-0.14 0.012,-0.281 0.036,-0.398 0.093,-0.398 0.355,-0.645 0.636,-0.645 0.528,0 0.61,0.551 0.61,1.114 v 2.738 h 0.691 V 92.68 c 0,-1.102 -0.457,-1.539 -1.043,-1.539 -0.234,0 -0.434,0.058 -0.613,0.175 -0.164,0.11 -0.317,0.286 -0.434,0.496 h -0.012 c -0.164,-0.468 -0.503,-0.671 -0.914,-0.671 -0.457,0 -0.785,0.261 -0.984,0.613 h -0.012 l -0.035,-0.543 h -0.609 c 0.011,0.355 0.035,0.625 0.035,1.129 z m 5.586,1.723 h 0.691 v -2.16 h 0.012 c 0.117,0.246 0.352,0.507 0.762,0.507 0.679,0 1.347,-0.648 1.347,-2.269 0,-1.43 -0.504,-2.242 -1.254,-2.242 -0.351,0 -0.691,0.164 -0.925,0.636 h -0.012 l -0.035,-0.566 h -0.621 c 0,0.309 0.035,0.695 0.035,1.363 z m 0.691,-4.438 c 0,-0.117 0,-0.222 0.012,-0.34 0.047,-0.386 0.328,-0.785 0.645,-0.785 0.55,0 0.761,0.75 0.761,1.653 0,0.882 -0.176,1.679 -0.75,1.679 -0.187,0 -0.504,-0.117 -0.644,-0.738 -0.024,-0.094 -0.024,-0.223 -0.024,-0.363 z m 2.903,2.715 h 0.703 v -6.234 h -0.703 z m 4.242,-2.113 c 0.012,-0.121 0.012,-0.239 0.012,-0.403 0,-0.984 -0.352,-1.925 -1.243,-1.925 -0.879,0 -1.476,0.882 -1.476,2.304 0,1.336 0.539,2.196 1.594,2.196 0.339,0 0.703,-0.082 0.949,-0.215 l -0.106,-0.516 c -0.176,0.106 -0.422,0.176 -0.726,0.176 -0.504,0 -1.02,-0.293 -1.032,-1.617 z m -2.016,-0.52 c 0.024,-0.597 0.258,-1.265 0.703,-1.265 0.34,0 0.668,0.386 0.657,1.265 z m 2.485,2.43 c 0.187,0.156 0.539,0.262 0.867,0.262 0.703,0 1.301,-0.426 1.301,-1.305 0,-0.598 -0.399,-1 -0.903,-1.328 -0.433,-0.293 -0.539,-0.457 -0.539,-0.75 0,-0.281 0.188,-0.551 0.563,-0.551 0.234,0 0.422,0.082 0.586,0.188 l 0.187,-0.528 c -0.187,-0.109 -0.445,-0.226 -0.785,-0.226 -0.68,0 -1.195,0.507 -1.195,1.211 0,0.503 0.304,0.878 0.867,1.246 0.445,0.293 0.562,0.527 0.562,0.855 0,0.387 -0.246,0.633 -0.644,0.633 -0.27,0 -0.539,-0.129 -0.703,-0.223 z m -14.118,9.219 c -0.047,-0.282 -0.047,-0.657 -0.047,-0.989 v -1.886 c 0,-0.989 -0.374,-1.563 -1.253,-1.563 -0.434,0 -0.832,0.152 -1.008,0.293 l 0.152,0.481 c 0.199,-0.129 0.445,-0.223 0.715,-0.223 0.551,0 0.691,0.41 0.691,0.988 v 0.141 c -0.984,0.012 -1.855,0.492 -1.855,1.582 0,0.754 0.449,1.246 1.035,1.246 0.375,0 0.68,-0.199 0.867,-0.527 h 0.024 l 0.047,0.457 z m -0.726,-1.375 c 0,0.07 0,0.164 -0.024,0.246 -0.082,0.437 -0.339,0.66 -0.644,0.66 -0.246,0 -0.527,-0.211 -0.527,-0.777 0,-0.95 0.832,-1.008 1.195,-1.008 z m 3.687,0.73 c -0.164,0.082 -0.316,0.117 -0.504,0.117 -0.632,0 -1.031,-0.613 -1.031,-1.632 0,-0.86 0.317,-1.68 1.008,-1.68 0.234,0 0.41,0.07 0.504,0.117 l 0.129,-0.574 c -0.117,-0.071 -0.375,-0.129 -0.61,-0.129 -1.089,0 -1.722,1.019 -1.722,2.266 0,1.445 0.644,2.218 1.594,2.218 0.304,0 0.574,-0.082 0.726,-0.164 z m 0.68,0.645 h 0.691 v -2.418 c 0,-0.141 0.012,-0.282 0.024,-0.399 0.074,-0.508 0.402,-0.906 0.847,-0.906 0.047,0 0.094,0 0.141,0.012 v -0.715 c -0.047,0 -0.094,-0.012 -0.141,-0.012 -0.41,0 -0.773,0.34 -0.929,0.762 h -0.012 l -0.035,-0.692 h -0.621 c 0,0.329 0.035,0.762 0.035,1.125 z m 3.387,-4.438 c -0.754,0 -1.469,0.668 -1.469,2.266 0,1.527 0.633,2.242 1.422,2.242 0.668,0 1.453,-0.563 1.453,-2.254 0,-1.527 -0.633,-2.254 -1.406,-2.254 z m -0.035,0.563 c 0.621,0 0.738,1.023 0.738,1.691 0,0.68 -0.117,1.703 -0.715,1.703 -0.637,0 -0.766,-0.976 -0.766,-1.703 0,-0.668 0.118,-1.691 0.743,-1.691 z m 1.925,3.675 c 0.188,0.153 0.539,0.258 0.868,0.258 0.703,0 1.3,-0.422 1.3,-1.304 0,-0.598 -0.398,-0.997 -0.902,-1.325 -0.434,-0.293 -0.539,-0.461 -0.539,-0.754 0,-0.281 0.187,-0.55 0.562,-0.55 0.235,0 0.422,0.082 0.586,0.187 l 0.188,-0.527 c -0.188,-0.106 -0.445,-0.223 -0.785,-0.223 -0.68,0 -1.196,0.504 -1.196,1.207 0,0.508 0.305,0.883 0.868,1.246 0.445,0.293 0.562,0.528 0.562,0.856 0,0.39 -0.246,0.636 -0.644,0.636 -0.27,0 -0.54,-0.128 -0.704,-0.222 z m 2.602,0 c 0.187,0.153 0.539,0.258 0.867,0.258 0.707,0 1.305,-0.422 1.305,-1.304 0,-0.598 -0.399,-0.997 -0.903,-1.325 -0.437,-0.293 -0.543,-0.461 -0.543,-0.754 0,-0.281 0.188,-0.55 0.567,-0.55 0.234,0 0.422,0.082 0.586,0.187 l 0.187,-0.527 c -0.187,-0.106 -0.445,-0.223 -0.785,-0.223 -0.683,0 -1.199,0.504 -1.199,1.207 0,0.508 0.305,0.883 0.867,1.246 0.449,0.293 0.567,0.528 0.567,0.856 0,0.39 -0.247,0.636 -0.649,0.636 -0.269,0 -0.539,-0.128 -0.703,-0.222 z m -16.691,8.571 c -0.165,0.082 -0.317,0.117 -0.504,0.117 -0.633,0 -1.032,-0.609 -1.032,-1.633 0,-0.855 0.317,-1.68 1.008,-1.68 0.235,0 0.41,0.071 0.504,0.118 l 0.129,-0.575 c -0.117,-0.07 -0.375,-0.128 -0.609,-0.128 -1.09,0 -1.727,1.023 -1.727,2.265 0,1.445 0.648,2.219 1.598,2.219 0.304,0 0.574,-0.082 0.726,-0.164 z m 1.902,-3.793 c -0.75,0 -1.465,0.668 -1.465,2.265 0,1.528 0.633,2.243 1.418,2.243 0.668,0 1.453,-0.563 1.453,-2.254 0,-1.528 -0.633,-2.254 -1.406,-2.254 z m -0.035,0.562 c 0.621,0 0.738,1.024 0.738,1.692 0,0.683 -0.117,1.703 -0.715,1.703 -0.633,0 -0.762,-0.973 -0.762,-1.703 0,-0.668 0.118,-1.692 0.739,-1.692 z m 2.207,3.875 h 0.703 v -2.746 c 0,-0.152 0,-0.281 0.023,-0.387 0.094,-0.468 0.367,-0.718 0.66,-0.718 0.504,0 0.598,0.531 0.598,1.035 v 2.816 h 0.703 v -2.933 c 0,-1.047 -0.457,-1.504 -1.054,-1.504 -0.457,0 -0.813,0.246 -1.012,0.597 h -0.012 l -0.035,-0.527 h -0.609 c 0.011,0.352 0.035,0.621 0.035,1.129 z m 3.761,-5.316 v 0.949 h -0.543 v 0.539 h 0.543 v 2.527 c 0,0.598 0.082,0.891 0.258,1.09 0.164,0.188 0.41,0.27 0.68,0.27 0.223,0 0.387,-0.035 0.516,-0.082 l -0.024,-0.528 c -0.082,0.024 -0.176,0.024 -0.281,0.024 -0.258,0 -0.457,-0.152 -0.457,-0.715 v -2.586 h 0.832 v -0.539 h -0.832 v -1.148 z m 2.832,5.316 v -4.367 h -0.703 v 4.367 z m -0.363,-5.941 c -0.222,0 -0.41,0.176 -0.41,0.449 0,0.27 0.176,0.457 0.398,0.457 0.258,0 0.434,-0.187 0.422,-0.457 0,-0.273 -0.164,-0.449 -0.41,-0.449 z m 1.317,5.941 h 0.707 v -2.746 c 0,-0.152 0,-0.281 0.023,-0.387 0.094,-0.468 0.363,-0.718 0.656,-0.718 0.504,0 0.598,0.531 0.598,1.035 v 2.816 h 0.703 v -2.933 c 0,-1.047 -0.457,-1.504 -1.055,-1.504 -0.457,0 -0.808,0.246 -1.007,0.597 h -0.012 l -0.035,-0.527 h -0.614 c 0.012,0.352 0.036,0.621 0.036,1.129 z m 6.171,-2.113 c 0.012,-0.117 0.012,-0.234 0.012,-0.398 0,-0.985 -0.351,-1.926 -1.246,-1.926 -0.879,0 -1.476,0.883 -1.476,2.301 0,1.339 0.539,2.195 1.597,2.195 0.34,0 0.703,-0.082 0.949,-0.211 l -0.105,-0.516 c -0.176,0.106 -0.422,0.176 -0.727,0.176 -0.507,0 -1.023,-0.293 -1.035,-1.621 z m -2.019,-0.516 c 0.023,-0.597 0.258,-1.269 0.703,-1.269 0.344,0 0.672,0.39 0.66,1.269 z m 2.766,2.629 h 0.703 v -2.746 c 0,-0.152 0,-0.281 0.023,-0.387 0.094,-0.468 0.363,-0.718 0.656,-0.718 0.508,0 0.602,0.531 0.602,1.035 v 2.816 h 0.703 v -2.933 c 0,-1.047 -0.457,-1.504 -1.055,-1.504 -0.461,0 -0.812,0.246 -1.011,0.597 h -0.012 l -0.035,-0.527 h -0.61 c 0.012,0.352 0.036,0.621 0.036,1.129 z m 3.761,-5.316 v 0.949 h -0.539 v 0.539 h 0.539 v 2.527 c 0,0.598 0.082,0.891 0.258,1.09 0.164,0.188 0.41,0.27 0.68,0.27 0.222,0 0.39,-0.035 0.519,-0.082 l -0.023,-0.528 c -0.082,0.024 -0.176,0.024 -0.285,0.024 -0.258,0 -0.457,-0.152 -0.457,-0.715 v -2.586 h 0.836 v -0.539 h -0.836 v -1.148 z M 331.02,64.371 c 0.164,0.129 0.609,0.27 1.023,0.27 0.961,0 1.699,-0.657 1.699,-1.715 0,-0.668 -0.316,-1.235 -1.054,-1.75 -0.575,-0.41 -0.891,-0.645 -0.891,-1.242 0,-0.426 0.281,-0.872 0.879,-0.872 0.316,0 0.562,0.094 0.715,0.211 l 0.175,-0.597 c -0.14,-0.106 -0.48,-0.223 -0.855,-0.223 -0.961,0 -1.609,0.668 -1.609,1.598 0,0.785 0.671,1.347 1.152,1.676 0.469,0.367 0.797,0.707 0.797,1.269 0,0.609 -0.375,1.024 -1.008,1.024 -0.305,0 -0.672,-0.106 -0.871,-0.239 z m 5.902,0.211 c -0.047,-0.281 -0.047,-0.656 -0.047,-0.988 v -1.891 c 0,-0.984 -0.375,-1.558 -1.254,-1.558 -0.433,0 -0.832,0.152 -1.008,0.293 l 0.153,0.48 c 0.199,-0.129 0.445,-0.223 0.714,-0.223 0.551,0 0.692,0.41 0.692,0.985 v 0.144 c -0.984,0.012 -1.852,0.492 -1.852,1.582 0,0.754 0.446,1.246 1.032,1.246 0.375,0 0.679,-0.199 0.867,-0.527 h 0.023 l 0.047,0.457 z m -0.727,-1.375 c 0,0.07 0,0.164 -0.023,0.246 -0.082,0.438 -0.34,0.66 -0.645,0.66 -0.246,0 -0.527,-0.211 -0.527,-0.777 0,-0.949 0.832,-1.008 1.195,-1.008 z m 1.653,1.375 h 0.691 v -2.77 c 0,-0.132 0.012,-0.261 0.023,-0.378 0.083,-0.457 0.376,-0.704 0.645,-0.704 0.516,0 0.609,0.504 0.609,0.997 v 2.855 h 0.68 v -2.809 c 0,-0.14 0.012,-0.281 0.035,-0.398 0.094,-0.398 0.352,-0.645 0.637,-0.645 0.527,0 0.609,0.551 0.609,1.118 v 2.734 h 0.692 V 61.68 c 0,-1.102 -0.457,-1.535 -1.043,-1.535 -0.235,0 -0.434,0.058 -0.614,0.175 -0.164,0.106 -0.316,0.282 -0.433,0.492 h -0.012 c -0.164,-0.468 -0.504,-0.667 -0.914,-0.667 -0.457,0 -0.785,0.257 -0.984,0.609 h -0.012 l -0.035,-0.539 h -0.61 c 0.012,0.351 0.036,0.621 0.036,1.125 z m 5.582,1.727 h 0.691 v -2.161 h 0.012 c 0.117,0.247 0.351,0.504 0.762,0.504 0.683,0 1.351,-0.644 1.351,-2.265 0,-1.434 -0.504,-2.242 -1.258,-2.242 -0.351,0 -0.691,0.164 -0.926,0.632 h -0.011 l -0.035,-0.562 h -0.621 c 0,0.305 0.035,0.691 0.035,1.359 z m 0.691,-4.438 c 0,-0.121 0,-0.226 0.012,-0.344 0.047,-0.386 0.328,-0.785 0.644,-0.785 0.551,0 0.762,0.75 0.762,1.656 0,0.879 -0.176,1.68 -0.75,1.68 -0.187,0 -0.504,-0.117 -0.644,-0.742 -0.024,-0.094 -0.024,-0.223 -0.024,-0.363 z m 2.902,2.711 h 0.704 v -6.234 h -0.704 z m 4.243,-2.113 c 0.011,-0.117 0.011,-0.235 0.011,-0.399 0,-0.988 -0.351,-1.925 -1.242,-1.925 -0.879,0 -1.476,0.878 -1.476,2.3 0,1.336 0.539,2.196 1.593,2.196 0.34,0 0.703,-0.082 0.95,-0.211 l -0.106,-0.516 c -0.176,0.106 -0.422,0.176 -0.726,0.176 -0.504,0 -1.02,-0.297 -1.032,-1.621 z m -2.016,-0.516 c 0.023,-0.601 0.258,-1.269 0.703,-1.269 0.34,0 0.668,0.386 0.656,1.269 z m 2.484,2.43 c 0.188,0.152 0.539,0.258 0.868,0.258 0.703,0 1.3,-0.422 1.3,-1.305 0,-0.598 -0.398,-0.996 -0.902,-1.324 -0.434,-0.297 -0.539,-0.461 -0.539,-0.754 0,-0.281 0.187,-0.551 0.562,-0.551 0.235,0 0.422,0.082 0.586,0.188 l 0.188,-0.528 c -0.188,-0.105 -0.445,-0.222 -0.785,-0.222 -0.68,0 -1.196,0.503 -1.196,1.207 0,0.507 0.305,0.882 0.868,1.246 0.445,0.293 0.562,0.527 0.562,0.855 0,0.387 -0.246,0.637 -0.644,0.637 -0.27,0 -0.54,-0.129 -0.704,-0.227 z m -19.937,9.215 V 69.23 h -0.707 v 4.368 z m -0.367,-5.942 c -0.223,0 -0.41,0.176 -0.41,0.449 0,0.27 0.175,0.457 0.398,0.457 0.262,0 0.437,-0.187 0.426,-0.457 0,-0.273 -0.164,-0.449 -0.414,-0.449 z m 1.316,5.942 h 0.707 v -2.746 c 0,-0.153 0,-0.282 0.024,-0.387 0.093,-0.473 0.363,-0.719 0.656,-0.719 0.504,0 0.597,0.531 0.597,1.035 v 2.817 h 0.704 v -2.934 c 0,-1.047 -0.457,-1.504 -1.055,-1.504 -0.457,0 -0.809,0.246 -1.008,0.598 h -0.012 l -0.035,-0.528 h -0.613 c 0.012,0.352 0.035,0.622 0.035,1.129 z m 5.063,0 H 338.5 V 71.18 c 0,-0.141 0.012,-0.282 0.023,-0.399 0.071,-0.504 0.399,-0.906 0.844,-0.906 0.047,0 0.094,0 0.141,0.012 v -0.715 c -0.047,0 -0.094,-0.012 -0.141,-0.012 -0.41,0 -0.773,0.34 -0.926,0.762 h -0.011 l -0.035,-0.692 h -0.622 c 0,0.329 0.036,0.762 0.036,1.129 z m 4.629,-2.114 c 0.011,-0.117 0.011,-0.234 0.011,-0.398 0,-0.984 -0.351,-1.926 -1.242,-1.926 -0.879,0 -1.477,0.879 -1.477,2.301 0,1.34 0.54,2.195 1.594,2.195 0.34,0 0.703,-0.082 0.949,-0.211 l -0.105,-0.515 c -0.176,0.105 -0.422,0.175 -0.727,0.175 -0.503,0 -1.019,-0.293 -1.031,-1.621 z m -2.016,-0.515 c 0.023,-0.598 0.258,-1.27 0.703,-1.27 0.34,0 0.668,0.387 0.656,1.27 z m 4.805,1.984 c -0.165,0.082 -0.317,0.117 -0.504,0.117 -0.633,0 -1.032,-0.609 -1.032,-1.632 0,-0.856 0.317,-1.68 1.008,-1.68 0.235,0 0.41,0.07 0.504,0.117 l 0.129,-0.574 c -0.117,-0.071 -0.375,-0.129 -0.609,-0.129 -1.09,0 -1.723,1.023 -1.723,2.266 0,1.445 0.645,2.218 1.594,2.218 0.304,0 0.574,-0.082 0.726,-0.164 z m 1.902,-3.793 c -0.75,0 -1.465,0.668 -1.465,2.266 0,1.527 0.633,2.242 1.418,2.242 0.668,0 1.457,-0.563 1.457,-2.254 0,-1.527 -0.633,-2.254 -1.41,-2.254 z m -0.035,0.563 c 0.621,0 0.738,1.023 0.738,1.691 0,0.68 -0.117,1.703 -0.715,1.703 -0.633,0 -0.762,-0.976 -0.762,-1.703 0,-0.668 0.118,-1.691 0.739,-1.691 z m 2.211,3.875 h 0.691 V 71.18 c 0,-0.141 0.012,-0.282 0.024,-0.399 0.07,-0.504 0.398,-0.906 0.843,-0.906 0.047,0 0.094,0 0.141,0.012 v -0.715 c -0.047,0 -0.094,-0.012 -0.141,-0.012 -0.41,0 -0.773,0.34 -0.925,0.762 h -0.012 l -0.035,-0.692 h -0.621 c 0,0.329 0.035,0.762 0.035,1.129 z m 4.054,-6.235 v 2.325 h -0.023 c -0.176,-0.376 -0.481,-0.528 -0.797,-0.528 -0.672,0 -1.316,0.727 -1.316,2.278 0,1.433 0.539,2.23 1.277,2.23 0.461,0 0.766,-0.305 0.906,-0.621 h 0.035 l 0.036,0.551 h 0.597 c -0.012,-0.258 -0.035,-0.75 -0.035,-1.043 v -5.192 z m 0,4.696 c 0,0.105 -0.011,0.203 -0.035,0.285 -0.152,0.633 -0.445,0.75 -0.668,0.75 -0.508,0 -0.742,-0.739 -0.742,-1.656 0,-0.879 0.199,-1.68 0.789,-1.68 0.328,0 0.598,0.402 0.645,0.847 0.011,0.094 0.011,0.2 0.011,0.293 z m 1.364,1.339 c 0.187,0.153 0.539,0.258 0.867,0.258 0.703,0 1.301,-0.422 1.301,-1.301 0,-0.601 -0.399,-1 -0.903,-1.328 -0.433,-0.293 -0.539,-0.457 -0.539,-0.75 0,-0.285 0.188,-0.554 0.563,-0.554 0.234,0 0.422,0.082 0.586,0.187 l 0.187,-0.527 C 356.598,69.277 356.34,69.16 356,69.16 c -0.68,0 -1.195,0.504 -1.195,1.211 0,0.504 0.304,0.879 0.867,1.242 0.445,0.293 0.562,0.528 0.562,0.86 0,0.386 -0.246,0.632 -0.644,0.632 -0.27,0 -0.539,-0.128 -0.703,-0.222 z m -126.368,66.207 v 6.083 h 0.692 v -2.84 h 1.699 v 2.84 h 0.703 v -6.083 h -0.703 v 2.606 h -1.699 v -2.606 z m 6.727,1.715 h -0.691 v 2.875 c 0,0.153 -0.012,0.282 -0.039,0.399 -0.036,0.203 -0.211,0.578 -0.622,0.578 -0.48,0 -0.585,-0.508 -0.585,-1.188 v -2.664 h -0.692 v 2.758 c 0,1.082 0.293,1.68 1.067,1.68 0.457,0 0.796,-0.317 0.929,-0.528 h 0.02 l 0.051,0.458 h 0.597 c -0.012,-0.329 -0.035,-0.704 -0.035,-1.188 z m 0.969,4.368 h 0.691 v -2.77 c 0,-0.129 0.012,-0.258 0.024,-0.379 0.082,-0.457 0.375,-0.703 0.644,-0.703 0.52,0 0.613,0.504 0.613,1 v 2.852 h 0.68 v -2.805 c 0,-0.141 0.012,-0.285 0.035,-0.403 0.094,-0.398 0.352,-0.644 0.633,-0.644 0.527,0 0.609,0.551 0.609,1.117 v 2.735 h 0.692 v -2.899 c 0,-1.105 -0.457,-1.539 -1.043,-1.539 -0.234,0 -0.434,0.059 -0.609,0.176 -0.165,0.105 -0.317,0.281 -0.434,0.492 h -0.012 c -0.164,-0.469 -0.504,-0.668 -0.918,-0.668 -0.457,0 -0.785,0.258 -0.984,0.609 h -0.012 l -0.035,-0.539 h -0.609 c 0.011,0.352 0.035,0.621 0.035,1.125 z m 7.941,0 c -0.047,-0.282 -0.047,-0.657 -0.047,-0.985 v -1.891 c 0,-0.988 -0.375,-1.562 -1.254,-1.562 -0.437,0 -0.836,0.152 -1.011,0.293 l 0.152,0.48 c 0.199,-0.128 0.445,-0.222 0.719,-0.222 0.551,0 0.691,0.41 0.691,0.988 v 0.141 c -0.988,0.011 -1.855,0.492 -1.855,1.582 0,0.754 0.445,1.246 1.031,1.246 0.379,0 0.684,-0.199 0.871,-0.528 h 0.023 l 0.047,0.458 z m -0.726,-1.376 c 0,0.071 0,0.165 -0.024,0.247 -0.082,0.437 -0.34,0.66 -0.644,0.66 -0.25,0 -0.532,-0.211 -0.532,-0.778 0,-0.949 0.836,-1.007 1.2,-1.007 z m 1.648,1.376 h 0.703 v -2.747 c 0,-0.152 0,-0.281 0.024,-0.39 0.093,-0.469 0.363,-0.715 0.66,-0.715 0.504,0 0.597,0.527 0.597,1.035 v 2.817 h 0.704 v -2.934 c 0,-1.047 -0.457,-1.504 -1.055,-1.504 -0.457,0 -0.813,0.246 -1.012,0.598 h -0.012 l -0.035,-0.528 h -0.609 c 0.012,0.352 0.035,0.621 0.035,1.125 z m 5.766,0 v -4.368 h -0.703 v 4.368 z m -0.364,-5.942 c -0.222,0 -0.41,0.176 -0.41,0.445 0,0.27 0.176,0.461 0.399,0.461 0.257,0 0.433,-0.191 0.422,-0.461 0,-0.269 -0.165,-0.445 -0.411,-0.445 z m 1.317,5.942 h 0.691 v -2.77 c 0,-0.129 0.012,-0.258 0.024,-0.379 0.082,-0.457 0.375,-0.703 0.644,-0.703 0.516,0 0.61,0.504 0.61,1 v 2.852 h 0.683 v -2.805 c 0,-0.141 0.012,-0.285 0.035,-0.403 0.094,-0.398 0.352,-0.644 0.633,-0.644 0.527,0 0.609,0.551 0.609,1.117 v 2.735 h 0.692 v -2.899 c 0,-1.105 -0.457,-1.539 -1.043,-1.539 -0.234,0 -0.434,0.059 -0.609,0.176 -0.164,0.105 -0.317,0.281 -0.438,0.492 h -0.012 c -0.164,-0.469 -0.504,-0.668 -0.914,-0.668 -0.457,0 -0.785,0.258 -0.984,0.609 h -0.012 l -0.035,-0.539 h -0.609 c 0.011,0.352 0.035,0.621 0.035,1.125 z m 5.586,1.726 h 0.691 v -2.16 h 0.012 c 0.117,0.246 0.351,0.504 0.762,0.504 0.679,0 1.351,-0.645 1.351,-2.266 0,-1.433 -0.508,-2.242 -1.258,-2.242 -0.351,0 -0.691,0.164 -0.925,0.633 h -0.012 l -0.035,-0.563 h -0.621 c 0,0.305 0.035,0.692 0.035,1.364 z m 0.691,-4.437 c 0,-0.118 0,-0.223 0.012,-0.34 0.047,-0.391 0.328,-0.789 0.644,-0.789 0.551,0 0.762,0.75 0.762,1.656 0,0.879 -0.176,1.68 -0.75,1.68 -0.187,0 -0.504,-0.118 -0.644,-0.743 -0.024,-0.093 -0.024,-0.222 -0.024,-0.363 z m 5.262,2.711 c -0.047,-0.282 -0.047,-0.657 -0.047,-0.985 v -1.891 c 0,-0.988 -0.375,-1.562 -1.258,-1.562 -0.433,0 -0.832,0.152 -1.008,0.293 l 0.153,0.48 c 0.199,-0.128 0.445,-0.222 0.715,-0.222 0.554,0 0.695,0.41 0.695,0.988 v 0.141 c -0.988,0.011 -1.856,0.492 -1.856,1.582 0,0.754 0.446,1.246 1.032,1.246 0.375,0 0.683,-0.199 0.871,-0.528 h 0.023 l 0.047,0.458 z m -0.727,-1.376 c 0,0.071 0,0.165 -0.023,0.247 -0.082,0.437 -0.344,0.66 -0.649,0.66 -0.246,0 -0.527,-0.211 -0.527,-0.778 0,-0.949 0.832,-1.007 1.199,-1.007 z m 3.688,0.731 c -0.164,0.082 -0.317,0.117 -0.504,0.117 -0.633,0 -1.031,-0.613 -1.031,-1.633 0,-0.855 0.316,-1.679 1.007,-1.679 0.235,0 0.411,0.07 0.504,0.117 l 0.129,-0.574 c -0.117,-0.071 -0.375,-0.129 -0.609,-0.129 -1.09,0 -1.727,1.019 -1.727,2.265 0,1.446 0.649,2.219 1.598,2.219 0.305,0 0.574,-0.082 0.727,-0.164 z m 0.98,-4.676 v 0.953 h -0.543 v 0.539 h 0.543 v 2.524 c 0,0.601 0.082,0.894 0.258,1.094 0.164,0.187 0.41,0.269 0.68,0.269 0.222,0 0.387,-0.035 0.515,-0.082 l -0.023,-0.527 c -0.082,0.023 -0.176,0.023 -0.281,0.023 -0.258,0 -0.457,-0.152 -0.457,-0.719 v -2.582 h 0.832 v -0.539 h -0.832 v -1.152 z"
       style="fill:#231f20;fill-opacity:1;fill-rule:nonzero;stroke:none"
       transform="scale(1.3333333)" />
    <path
       id="path8529"
       d="m 67.914,98.668 c -0.469,0.668 -0.973,1.891 -0.984,3.652 0,1.774 0.515,2.981 0.984,3.664 h 0.539 c -0.515,-0.824 -0.937,-2.031 -0.937,-3.652 0,-1.644 0.422,-2.855 0.937,-3.664 z m 1.25,6.234 h 0.703 v -2.746 c 0,-0.152 0,-0.281 0.024,-0.386 0.093,-0.473 0.363,-0.719 0.656,-0.719 0.508,0 0.601,0.527 0.601,1.035 v 2.816 h 0.704 v -2.933 c 0,-1.047 -0.457,-1.504 -1.059,-1.504 -0.457,0 -0.809,0.246 -1.008,0.597 h -0.012 l -0.035,-0.527 h -0.609 c 0.012,0.352 0.035,0.621 0.035,1.125 z m 8.176,-3.027 v -0.496 h -4.645 v 0.496 z m 0,1.699 v -0.492 h -4.645 v 0.492 z m 2.051,1.328 h 0.691 v -5.859 h -0.574 l -1.246,0.719 0.14,0.539 0.977,-0.551 h 0.012 z m 4.882,0 v -0.609 h -1.957 v -0.023 l 0.399,-0.543 c 0.726,-0.985 1.441,-2.055 1.441,-3.157 0,-0.879 -0.422,-1.597 -1.394,-1.597 -0.528,0 -0.938,0.222 -1.149,0.386 l 0.176,0.532 c 0.152,-0.094 0.422,-0.332 0.844,-0.332 0.551,0 0.844,0.402 0.844,1.046 0,1.106 -0.832,2.207 -1.524,3.172 l -0.492,0.68 v 0.445 z m 3.235,-5.929 c -0.094,0 -0.258,0.011 -0.446,0.047 -0.503,0.105 -1.054,0.433 -1.406,0.929 -0.457,0.621 -0.761,1.512 -0.761,2.641 0,1.351 0.515,2.383 1.535,2.383 0.937,0 1.441,-0.891 1.441,-1.996 0,-1.125 -0.516,-1.809 -1.266,-1.809 -0.433,0 -0.761,0.223 -0.984,0.566 h -0.035 c 0.152,-0.906 0.539,-1.879 1.512,-2.117 0.164,-0.035 0.293,-0.058 0.41,-0.058 z m -1.078,5.461 c -0.469,0 -0.844,-0.551 -0.844,-1.75 0,-0.176 0.023,-0.293 0.047,-0.352 0.176,-0.434 0.469,-0.633 0.762,-0.633 0.468,0 0.785,0.446 0.785,1.324 0,1.024 -0.352,1.411 -0.75,1.411 z m 4.781,0.468 v -0.609 h -1.957 v -0.023 l 0.398,-0.543 c 0.727,-0.985 1.442,-2.055 1.442,-3.157 0,-0.879 -0.422,-1.597 -1.395,-1.597 -0.527,0 -0.937,0.222 -1.148,0.386 l 0.176,0.532 c 0.152,-0.094 0.421,-0.332 0.843,-0.332 0.551,0 0.844,0.402 0.844,1.046 0,1.106 -0.832,2.207 -1.523,3.172 l -0.493,0.68 v 0.445 z m 1.125,1.082 c 0.469,-0.695 0.973,-1.879 0.996,-3.664 0,-1.785 -0.527,-2.996 -0.996,-3.652 h -0.539 c 0.515,0.809 0.937,2.02 0.937,3.652 0,1.621 -0.422,2.852 -0.937,3.664 z M 231.008,67.383 h 0.691 v -2.492 c 0.106,0.011 0.188,0.011 0.305,0.011 0.539,0 1.105,-0.222 1.434,-0.679 0.234,-0.305 0.374,-0.68 0.374,-1.243 0,-0.519 -0.152,-0.964 -0.445,-1.257 -0.32,-0.305 -0.789,-0.446 -1.351,-0.446 -0.399,0 -0.727,0.047 -1.008,0.118 z m 0.691,-5.496 c 0.094,-0.024 0.223,-0.047 0.387,-0.047 0.773,0 1.035,0.562 1.035,1.187 0,0.856 -0.461,1.301 -1.152,1.301 -0.117,0 -0.188,0 -0.27,-0.023 z m 4.977,5.496 c -0.047,-0.281 -0.047,-0.66 -0.047,-0.988 v -1.891 c 0,-0.984 -0.375,-1.559 -1.254,-1.559 -0.434,0 -0.832,0.153 -1.008,0.293 l 0.153,0.481 c 0.199,-0.129 0.445,-0.223 0.714,-0.223 0.551,0 0.692,0.41 0.692,0.984 v 0.141 c -0.985,0.012 -1.856,0.496 -1.856,1.586 0,0.75 0.45,1.246 1.035,1.246 0.375,0 0.68,-0.199 0.868,-0.531 h 0.023 l 0.047,0.461 z m -0.727,-1.375 c 0,0.07 0,0.164 -0.023,0.246 -0.082,0.434 -0.34,0.656 -0.645,0.656 -0.246,0 -0.527,-0.211 -0.527,-0.773 0,-0.949 0.832,-1.008 1.195,-1.008 z m 1.367,1.176 c 0.188,0.152 0.539,0.257 0.868,0.257 0.703,0 1.3,-0.421 1.3,-1.304 0,-0.598 -0.398,-0.996 -0.902,-1.328 -0.434,-0.293 -0.539,-0.457 -0.539,-0.75 0,-0.282 0.187,-0.551 0.562,-0.551 0.235,0 0.422,0.082 0.586,0.187 l 0.188,-0.527 c -0.188,-0.106 -0.445,-0.223 -0.785,-0.223 -0.68,0 -1.196,0.504 -1.196,1.207 0,0.504 0.305,0.883 0.868,1.246 0.445,0.293 0.562,0.528 0.562,0.856 0,0.387 -0.246,0.633 -0.644,0.633 -0.27,0 -0.539,-0.129 -0.704,-0.223 z m 3.047,-5.122 v 0.954 h -0.539 v 0.539 h 0.539 v 2.523 c 0,0.598 0.082,0.891 0.258,1.094 0.164,0.187 0.41,0.269 0.684,0.269 0.222,0 0.386,-0.035 0.515,-0.082 l -0.023,-0.531 c -0.082,0.024 -0.176,0.024 -0.281,0.024 -0.258,0 -0.461,-0.153 -0.461,-0.715 v -2.582 h 0.836 v -0.539 h -0.836 v -1.153 z m 3.184,0.954 1.137,4.367 h 0.621 l 1.136,-4.367 h -0.691 l -0.539,2.453 c -0.059,0.34 -0.129,0.703 -0.176,1.066 H 245 c -0.047,-0.375 -0.117,-0.762 -0.188,-1.066 l -0.55,-2.453 z m 5.894,2.254 c 0.012,-0.118 0.012,-0.235 0.012,-0.403 0,-0.984 -0.355,-1.922 -1.246,-1.922 -0.879,0 -1.477,0.879 -1.477,2.301 0,1.336 0.54,2.195 1.594,2.195 0.34,0 0.703,-0.082 0.949,-0.211 l -0.105,-0.519 c -0.176,0.105 -0.422,0.176 -0.727,0.176 -0.503,0 -1.019,-0.293 -1.031,-1.617 z m -2.019,-0.52 c 0.023,-0.598 0.258,-1.266 0.703,-1.266 0.34,0 0.668,0.387 0.656,1.266 z m 4.816,-1.734 -0.035,0.504 h -0.023 c -0.129,-0.27 -0.34,-0.575 -0.809,-0.575 -0.633,0 -1.371,0.668 -1.371,2.278 0,1.277 0.504,2.148 1.277,2.148 0.375,0 0.692,-0.187 0.844,-0.531 h 0.012 v 0.449 c 0,0.984 -0.34,1.324 -0.891,1.324 -0.351,0 -0.633,-0.093 -0.808,-0.187 l -0.164,0.539 c 0.234,0.133 0.585,0.226 0.96,0.226 0.481,0 0.903,-0.179 1.161,-0.472 0.281,-0.317 0.437,-0.75 0.437,-1.903 v -2.441 c 0,-0.668 0.024,-1.055 0.035,-1.359 z m -0.105,2.769 c 0,0.129 0,0.258 -0.035,0.399 -0.153,0.515 -0.422,0.621 -0.621,0.621 -0.434,0 -0.786,-0.504 -0.786,-1.617 0,-0.977 0.282,-1.645 0.786,-1.645 0.386,0 0.539,0.363 0.621,0.668 0.035,0.082 0.035,0.199 0.035,0.316 z m 4.172,-0.515 c 0.011,-0.118 0.011,-0.235 0.011,-0.403 0,-0.984 -0.351,-1.922 -1.246,-1.922 -0.879,0 -1.476,0.879 -1.476,2.301 0,1.336 0.539,2.195 1.597,2.195 0.34,0 0.704,-0.082 0.95,-0.211 l -0.106,-0.519 c -0.176,0.105 -0.422,0.176 -0.726,0.176 -0.508,0 -1.024,-0.293 -1.036,-1.617 z m -2.02,-0.52 c 0.024,-0.598 0.258,-1.266 0.703,-1.266 0.344,0 0.672,0.387 0.66,1.266 z m 2.93,-2.688 v 0.954 h -0.539 v 0.539 h 0.539 v 2.523 c 0,0.598 0.082,0.891 0.258,1.094 0.164,0.187 0.41,0.269 0.679,0.269 0.223,0 0.387,-0.035 0.52,-0.082 l -0.024,-0.531 c -0.082,0.024 -0.179,0.024 -0.285,0.024 -0.258,0 -0.457,-0.153 -0.457,-0.715 v -2.582 h 0.836 v -0.539 h -0.836 v -1.153 z m 4.488,5.321 c -0.047,-0.281 -0.047,-0.66 -0.047,-0.988 v -1.891 c 0,-0.984 -0.375,-1.559 -1.254,-1.559 -0.433,0 -0.832,0.153 -1.007,0.293 l 0.152,0.481 c 0.199,-0.129 0.445,-0.223 0.715,-0.223 0.55,0 0.691,0.41 0.691,0.984 v 0.141 c -0.984,0.012 -1.851,0.496 -1.851,1.586 0,0.75 0.445,1.246 1.031,1.246 0.375,0 0.679,-0.199 0.867,-0.531 h 0.023 l 0.047,0.461 z m -0.726,-1.375 c 0,0.07 0,0.164 -0.024,0.246 -0.082,0.434 -0.34,0.656 -0.644,0.656 -0.247,0 -0.528,-0.211 -0.528,-0.773 0,-0.949 0.832,-1.008 1.196,-1.008 z m 1.734,-3.946 v 0.954 h -0.539 v 0.539 h 0.539 v 2.523 c 0,0.598 0.082,0.891 0.258,1.094 0.164,0.187 0.41,0.269 0.679,0.269 0.223,0 0.387,-0.035 0.516,-0.082 l -0.023,-0.531 c -0.082,0.024 -0.176,0.024 -0.282,0.024 -0.257,0 -0.457,-0.153 -0.457,-0.715 v -2.582 h 0.832 v -0.539 h -0.832 v -1.153 z m 2.836,5.321 v -4.367 h -0.703 v 4.367 z m -0.363,-5.942 c -0.223,0 -0.411,0.176 -0.411,0.446 0,0.269 0.176,0.457 0.399,0.457 0.258,0 0.433,-0.188 0.422,-0.457 0,-0.27 -0.164,-0.446 -0.41,-0.446 z m 2.597,1.504 c -0.75,0 -1.469,0.668 -1.469,2.266 0,1.523 0.637,2.242 1.422,2.242 0.668,0 1.454,-0.566 1.454,-2.254 0,-1.527 -0.633,-2.254 -1.407,-2.254 z m -0.035,0.563 c 0.621,0 0.738,1.019 0.738,1.691 0,0.68 -0.117,1.699 -0.714,1.699 -0.633,0 -0.762,-0.972 -0.762,-1.699 0,-0.672 0.117,-1.691 0.738,-1.691 z m 2.203,3.875 h 0.703 v -2.75 c 0,-0.153 0,-0.281 0.024,-0.387 0.094,-0.469 0.363,-0.715 0.656,-0.715 0.508,0 0.602,0.528 0.602,1.031 v 2.821 h 0.703 v -2.938 c 0,-1.043 -0.457,-1.5 -1.055,-1.5 -0.461,0 -0.812,0.246 -1.012,0.598 h -0.011 l -0.036,-0.527 h -0.609 c 0.012,0.351 0.035,0.621 0.035,1.125 z M 238.84,78.125 h 0.691 v -2.16 h 0.012 c 0.117,0.246 0.352,0.504 0.762,0.504 0.679,0 1.351,-0.645 1.351,-2.266 0,-1.433 -0.508,-2.242 -1.258,-2.242 -0.351,0 -0.691,0.164 -0.925,0.633 h -0.012 l -0.035,-0.563 h -0.621 c 0,0.305 0.035,0.692 0.035,1.364 z m 0.691,-4.437 c 0,-0.118 0,-0.223 0.012,-0.34 0.047,-0.391 0.328,-0.789 0.645,-0.789 0.55,0 0.761,0.753 0.761,1.656 0,0.879 -0.176,1.68 -0.75,1.68 -0.187,0 -0.504,-0.118 -0.644,-0.743 -0.024,-0.093 -0.024,-0.222 -0.024,-0.363 z m 2.903,2.71 h 0.691 V 73.98 c 0,-0.14 0.012,-0.281 0.023,-0.398 0.071,-0.508 0.399,-0.906 0.848,-0.906 0.047,0 0.094,0 0.141,0.012 v -0.715 c -0.047,0 -0.094,-0.012 -0.141,-0.012 -0.414,0 -0.777,0.34 -0.93,0.762 h -0.011 l -0.035,-0.692 h -0.622 c 0,0.328 0.036,0.762 0.036,1.125 z m 3.382,-4.437 c -0.75,0 -1.464,0.668 -1.464,2.266 0,1.527 0.632,2.242 1.418,2.242 0.671,0 1.457,-0.563 1.457,-2.254 0,-1.527 -0.633,-2.254 -1.411,-2.254 z m -0.035,0.562 c 0.625,0 0.742,1.024 0.742,1.692 0,0.68 -0.117,1.703 -0.718,1.703 -0.633,0 -0.762,-0.977 -0.762,-1.703 0,-0.668 0.117,-1.692 0.738,-1.692 z m 2.211,5.602 h 0.692 v -2.16 h 0.011 c 0.117,0.246 0.352,0.504 0.762,0.504 0.68,0 1.348,-0.645 1.348,-2.266 0,-1.433 -0.504,-2.242 -1.254,-2.242 -0.352,0 -0.692,0.164 -0.926,0.633 h -0.012 l -0.035,-0.563 h -0.621 c 0,0.305 0.035,0.692 0.035,1.364 z m 0.692,-4.437 c 0,-0.118 0,-0.223 0.011,-0.34 0.047,-0.391 0.328,-0.789 0.645,-0.789 0.551,0 0.762,0.753 0.762,1.656 0,0.879 -0.176,1.68 -0.75,1.68 -0.188,0 -0.504,-0.118 -0.645,-0.743 -0.023,-0.093 -0.023,-0.222 -0.023,-0.363 z m 5.425,0.597 c 0.012,-0.117 0.012,-0.234 0.012,-0.398 0,-0.989 -0.355,-1.926 -1.246,-1.926 -0.879,0 -1.477,0.879 -1.477,2.301 0,1.34 0.54,2.195 1.594,2.195 0.34,0 0.703,-0.082 0.949,-0.211 l -0.105,-0.516 c -0.176,0.106 -0.422,0.176 -0.727,0.176 -0.504,0 -1.019,-0.293 -1.031,-1.621 z M 252.09,73.77 c 0.023,-0.602 0.258,-1.27 0.703,-1.27 0.34,0 0.668,0.387 0.656,1.27 z m 2.765,2.628 h 0.692 V 73.98 c 0,-0.14 0.012,-0.281 0.023,-0.398 0.071,-0.508 0.399,-0.906 0.844,-0.906 0.047,0 0.094,0 0.141,0.012 v -0.715 c -0.047,0 -0.094,-0.012 -0.141,-0.012 -0.41,0 -0.773,0.34 -0.926,0.762 h -0.011 l -0.036,-0.692 h -0.621 c 0,0.328 0.035,0.762 0.035,1.125 z m 2.614,-5.32 v 0.953 h -0.539 v 0.539 h 0.539 v 2.524 c 0,0.601 0.082,0.894 0.258,1.094 0.164,0.187 0.41,0.269 0.679,0.269 0.223,0 0.387,-0.035 0.516,-0.082 l -0.024,-0.527 c -0.082,0.023 -0.175,0.023 -0.281,0.023 -0.258,0 -0.457,-0.152 -0.457,-0.719 V 72.57 h 0.832 v -0.539 h -0.832 v -1.152 z m 2.836,5.32 v -4.367 h -0.703 v 4.367 z m -0.364,-5.941 c -0.222,0 -0.41,0.176 -0.41,0.445 0,0.274 0.176,0.461 0.399,0.461 0.258,0 0.433,-0.187 0.422,-0.461 0,-0.269 -0.164,-0.445 -0.411,-0.445 z m 3.84,3.828 c 0.012,-0.117 0.012,-0.234 0.012,-0.398 0,-0.989 -0.352,-1.926 -1.242,-1.926 -0.883,0 -1.481,0.879 -1.481,2.301 0,1.34 0.539,2.195 1.598,2.195 0.34,0 0.703,-0.082 0.949,-0.211 l -0.105,-0.516 c -0.176,0.106 -0.422,0.176 -0.727,0.176 -0.504,0 -1.023,-0.293 -1.035,-1.621 z m -2.019,-0.515 c 0.023,-0.602 0.258,-1.27 0.707,-1.27 0.34,0 0.668,0.387 0.656,1.27 z m 2.484,2.429 c 0.188,0.153 0.539,0.258 0.867,0.258 0.707,0 1.305,-0.422 1.305,-1.305 0,-0.597 -0.398,-0.996 -0.906,-1.324 -0.434,-0.293 -0.539,-0.457 -0.539,-0.754 0,-0.281 0.187,-0.551 0.562,-0.551 0.238,0 0.426,0.082 0.59,0.188 l 0.187,-0.527 c -0.187,-0.106 -0.445,-0.223 -0.789,-0.223 -0.679,0 -1.195,0.504 -1.195,1.207 0,0.508 0.305,0.883 0.867,1.246 0.45,0.293 0.567,0.527 0.567,0.856 0,0.39 -0.25,0.636 -0.649,0.636 -0.269,0 -0.539,-0.129 -0.703,-0.222 z"
       style="fill:#231f20;fill-opacity:1;fill-rule:nonzero;stroke:none"
       transform="scale(1.3333333)" />
  </g>
</svg>
