<?xml version="1.0" encoding="UTF-8" standalone="no"?>
<!-- Created with Inkscape (http://www.inkscape.org/) -->

<svg
   version="1.1"
   id="svg1"
   width="18.312042"
   height="28.933334"
   viewBox="0 0 18.312042 28.933335"
   sodipodi:docname="Figure1.pdf"
   xmlns:inkscape="http://www.inkscape.org/namespaces/inkscape"
   xmlns:sodipodi="http://sodipodi.sourceforge.net/DTD/sodipodi-0.dtd"
   xmlns="http://www.w3.org/2000/svg"
   xmlns:svg="http://www.w3.org/2000/svg">
  <defs
     id="defs1">
    <clipPath
       clipPathUnits="userSpaceOnUse"
       id="clipPath46">
      <path
         d="M 0,0 H 766 V 284 H 0 Z"
         id="path46" />
    </clipPath>
    <clipPath
       clipPathUnits="userSpaceOnUse"
       id="clipPath8934">
      <path
         d="M 0,0 H 766 V 284 H 0 Z"
         id="path8934" />
    </clipPath>
    <clipPath
       clipPathUnits="userSpaceOnUse"
       id="clipPath8936">
      <path
         d="M 0,0 H 766 V 284 H 0 Z"
         id="path8936" />
    </clipPath>
    <clipPath
       clipPathUnits="userSpaceOnUse"
       id="clipPath8938">
      <path
         d="M 0,0 H 766 V 284 H 0 Z"
         transform="scale(1.0010441,-1)"
         id="path8938" />
    </clipPath>
    <clipPath
       clipPathUnits="userSpaceOnUse"
       id="clipPath8940">
      <path
         d="M 0,0 H 766 V 284 H 0 Z"
         transform="scale(1.0010441,-1)"
         id="path8940" />
    </clipPath>
    <clipPath
       clipPathUnits="userSpaceOnUse"
       id="clipPath8942">
      <path
         d="M 0,0 H 766 V 284 H 0 Z"
         transform="scale(1.0010441,-1)"
         id="path8942" />
    </clipPath>
    <clipPath
       clipPathUnits="userSpaceOnUse"
       id="clipPath8944">
      <path
         d="M 0,0 H 766 V 284 H 0 Z"
         transform="scale(1.0010441,-1)"
         id="path8944" />
    </clipPath>
  </defs>
  <sodipodi:namedview
     id="namedview1"
     pagecolor="#ffffff"
     bordercolor="#000000"
     borderopacity="0.25"
     inkscape:showpageshadow="2"
     inkscape:pageopacity="0.0"
     inkscape:pagecheckerboard="0"
     inkscape:deskcolor="#d1d1d1" />
  <g
     id="g1"
     inkscape:groupmode="layer"
     inkscape:label=""
     transform="translate(-216.35858,-244.98399)">
    <g
       id="g47">
      <path
         d="M 18.219,0.48 H 757.145 V 284.132 H 18.219 Z"
         style="fill:#ffffff;fill-opacity:1;fill-rule:nonzero;stroke:none"
         transform="scale(1.3333333)"
         clip-path="url(#clipPath46)"
         id="path47" />
    </g>
    <path
       id="path8522"
       d="m 327.258,224.605 h -1.442 v 0.579 h 0.786 v 1.984 c -0.059,0.023 -0.188,0.07 -0.422,0.07 -0.727,0 -1.442,-0.613 -1.442,-2.48 0,-1.891 0.821,-2.488 1.571,-2.488 0.328,0 0.539,0.058 0.703,0.14 l 0.152,-0.598 c -0.187,-0.093 -0.48,-0.164 -0.855,-0.164 -1.079,0 -2.286,0.809 -2.286,3.168 -0.011,1.118 0.282,1.95 0.727,2.422 0.398,0.446 0.902,0.598 1.43,0.598 0.386,0 0.82,-0.106 1.078,-0.211 z m 3.43,1.059 c 0.011,-0.117 0.011,-0.234 0.011,-0.398 0,-0.989 -0.351,-1.926 -1.242,-1.926 -0.883,0 -1.48,0.879 -1.48,2.301 0,1.336 0.539,2.195 1.597,2.195 0.34,0 0.703,-0.082 0.949,-0.211 l -0.105,-0.516 c -0.176,0.106 -0.422,0.176 -0.727,0.176 -0.507,0 -1.023,-0.297 -1.035,-1.621 z m -2.02,-0.516 c 0.023,-0.601 0.258,-1.269 0.707,-1.269 0.34,0 0.668,0.387 0.656,1.269 z m 2.766,2.629 h 0.703 v -2.746 c 0,-0.156 0,-0.285 0.023,-0.39 0.094,-0.469 0.363,-0.715 0.66,-0.715 0.504,0 0.598,0.527 0.598,1.031 v 2.82 h 0.703 v -2.937 c 0,-1.043 -0.457,-1.5 -1.055,-1.5 -0.461,0 -0.812,0.246 -1.011,0.598 h -0.012 l -0.035,-0.528 h -0.61 c 0.012,0.352 0.036,0.621 0.036,1.125 z m 6.171,-2.113 c 0.012,-0.117 0.012,-0.234 0.012,-0.398 0,-0.989 -0.355,-1.926 -1.246,-1.926 -0.879,0 -1.476,0.879 -1.476,2.301 0,1.336 0.539,2.195 1.593,2.195 0.34,0 0.703,-0.082 0.953,-0.211 l -0.109,-0.516 c -0.176,0.106 -0.422,0.176 -0.727,0.176 -0.503,0 -1.019,-0.297 -1.031,-1.621 z m -2.019,-0.516 c 0.023,-0.601 0.258,-1.269 0.703,-1.269 0.34,0 0.668,0.387 0.656,1.269 z m 2.766,2.629 h 0.691 v -2.418 c 0,-0.14 0.012,-0.281 0.023,-0.402 0.071,-0.504 0.399,-0.902 0.844,-0.902 0.047,0 0.094,0 0.141,0.011 v -0.714 c -0.047,0 -0.094,-0.012 -0.141,-0.012 -0.41,0 -0.773,0.34 -0.926,0.762 h -0.011 l -0.035,-0.692 h -0.622 c 0,0.328 0.036,0.762 0.036,1.125 z m 4.535,0 c -0.047,-0.281 -0.047,-0.656 -0.047,-0.988 v -1.891 c 0,-0.984 -0.375,-1.558 -1.254,-1.558 -0.434,0 -0.832,0.152 -1.008,0.293 l 0.152,0.48 c 0.2,-0.129 0.446,-0.222 0.715,-0.222 0.551,0 0.692,0.41 0.692,0.984 v 0.145 c -0.985,0.011 -1.852,0.492 -1.852,1.582 0,0.753 0.445,1.246 1.031,1.246 0.375,0 0.68,-0.2 0.868,-0.528 h 0.023 l 0.047,0.457 z m -0.727,-1.375 c 0,0.071 0,0.164 -0.023,0.246 -0.082,0.438 -0.34,0.661 -0.645,0.661 -0.246,0 -0.527,-0.211 -0.527,-0.778 0,-0.949 0.832,-1.008 1.195,-1.008 z m 1.652,1.375 h 0.704 v -6.234 h -0.704 z m 3.297,-5.32 v 0.953 h -0.539 v 0.539 h 0.539 v 2.524 c 0,0.601 0.082,0.894 0.258,1.093 0.164,0.188 0.41,0.27 0.68,0.27 0.223,0 0.387,-0.035 0.515,-0.082 l -0.023,-0.527 c -0.082,0.023 -0.176,0.023 -0.281,0.023 -0.258,0 -0.457,-0.152 -0.457,-0.719 v -2.582 h 0.832 v -0.539 h -0.832 v -1.152 z m 2.133,5.32 h 0.692 v -2.418 c 0,-0.14 0.011,-0.281 0.023,-0.402 0.07,-0.504 0.398,-0.902 0.844,-0.902 0.047,0 0.094,0 0.14,0.011 v -0.714 c -0.046,0 -0.093,-0.012 -0.14,-0.012 -0.41,0 -0.774,0.34 -0.926,0.762 h -0.012 l -0.035,-0.692 h -0.621 c 0,0.328 0.035,0.762 0.035,1.125 z m 4.629,-2.113 c 0.012,-0.117 0.012,-0.234 0.012,-0.398 0,-0.989 -0.352,-1.926 -1.242,-1.926 -0.879,0 -1.481,0.879 -1.481,2.301 0,1.336 0.543,2.195 1.598,2.195 0.34,0 0.703,-0.082 0.949,-0.211 l -0.105,-0.516 c -0.176,0.106 -0.422,0.176 -0.727,0.176 -0.504,0 -1.02,-0.297 -1.031,-1.621 z m -2.016,-0.516 c 0.024,-0.601 0.258,-1.269 0.704,-1.269 0.339,0 0.668,0.387 0.656,1.269 z m 2.762,2.629 h 0.707 v -2.746 c 0,-0.156 0,-0.285 0.024,-0.39 0.093,-0.469 0.363,-0.715 0.656,-0.715 0.504,0 0.598,0.527 0.598,1.031 v 2.82 h 0.703 v -2.937 c 0,-1.043 -0.457,-1.5 -1.055,-1.5 -0.457,0 -0.809,0.246 -1.008,0.598 h -0.012 l -0.035,-0.528 h -0.613 c 0.012,0.352 0.035,0.621 0.035,1.125 z m 5.598,-6.234 v 2.324 h -0.024 c -0.175,-0.375 -0.48,-0.527 -0.796,-0.527 -0.672,0 -1.317,0.726 -1.317,2.277 0,1.434 0.539,2.231 1.281,2.231 0.457,0 0.762,-0.305 0.903,-0.621 h 0.035 l 0.035,0.55 h 0.598 c -0.012,-0.257 -0.035,-0.754 -0.035,-1.047 v -5.187 z m 0,4.695 c 0,0.106 -0.012,0.2 -0.035,0.282 -0.153,0.636 -0.446,0.753 -0.668,0.753 -0.508,0 -0.742,-0.742 -0.742,-1.656 0,-0.883 0.199,-1.679 0.789,-1.679 0.328,0 0.597,0.398 0.644,0.843 0.012,0.094 0.012,0.203 0.012,0.297 z m 1.363,1.34 c 0.192,0.152 0.543,0.258 0.871,0.258 0.703,0 1.301,-0.422 1.301,-1.305 0,-0.597 -0.398,-0.996 -0.902,-1.324 -0.434,-0.297 -0.539,-0.461 -0.539,-0.754 0,-0.281 0.187,-0.551 0.562,-0.551 0.234,0 0.422,0.082 0.586,0.188 l 0.188,-0.528 c -0.188,-0.105 -0.446,-0.222 -0.786,-0.222 -0.679,0 -1.199,0.504 -1.199,1.207 0,0.508 0.309,0.883 0.871,1.246 0.446,0.293 0.563,0.527 0.563,0.855 0,0.387 -0.246,0.637 -0.645,0.637 -0.269,0 -0.539,-0.129 -0.703,-0.223 z m -32.633,8.57 c -0.164,0.082 -0.316,0.118 -0.504,0.118 -0.632,0 -1.031,-0.61 -1.031,-1.633 0,-0.856 0.317,-1.68 1.008,-1.68 0.234,0 0.41,0.07 0.504,0.117 l 0.129,-0.574 c -0.117,-0.07 -0.375,-0.129 -0.61,-0.129 -1.089,0 -1.726,1.024 -1.726,2.266 0,1.445 0.648,2.219 1.597,2.219 0.305,0 0.575,-0.082 0.727,-0.164 z m 0.676,0.645 h 0.703 v -6.234 h -0.703 z m 2.426,0 v -4.367 h -0.703 v 4.367 z m -0.363,-5.941 c -0.223,0 -0.411,0.175 -0.411,0.449 0,0.269 0.176,0.457 0.399,0.457 0.258,0 0.433,-0.188 0.422,-0.457 0,-0.274 -0.164,-0.449 -0.41,-0.449 z m 1.316,5.941 h 0.691 v -2.77 c 0,-0.128 0.012,-0.257 0.024,-0.375 0.082,-0.46 0.375,-0.707 0.644,-0.707 0.516,0 0.61,0.508 0.61,1 v 2.852 h 0.683 v -2.805 c 0,-0.14 0.012,-0.281 0.036,-0.398 0.093,-0.402 0.351,-0.649 0.632,-0.649 0.528,0 0.61,0.555 0.61,1.118 v 2.734 h 0.691 v -2.898 c 0,-1.106 -0.457,-1.54 -1.043,-1.54 -0.234,0 -0.433,0.059 -0.609,0.176 -0.164,0.106 -0.317,0.281 -0.434,0.492 h -0.012 c -0.164,-0.468 -0.507,-0.668 -0.918,-0.668 -0.457,0 -0.785,0.258 -0.984,0.61 h -0.012 l -0.035,-0.539 h -0.609 c 0.012,0.351 0.035,0.621 0.035,1.129 z m 7.945,0 c -0.047,-0.281 -0.047,-0.656 -0.047,-0.984 v -1.891 c 0,-0.988 -0.378,-1.563 -1.257,-1.563 -0.434,0 -0.832,0.153 -1.008,0.293 l 0.152,0.481 c 0.199,-0.129 0.445,-0.223 0.715,-0.223 0.551,0 0.691,0.414 0.691,0.989 v 0.14 c -0.984,0.012 -1.851,0.492 -1.851,1.586 0,0.75 0.445,1.242 1.031,1.242 0.375,0 0.68,-0.199 0.867,-0.527 h 0.024 l 0.047,0.457 z m -0.73,-1.371 c 0,0.07 0,0.164 -0.024,0.246 -0.082,0.434 -0.339,0.656 -0.644,0.656 -0.246,0 -0.527,-0.211 -0.527,-0.773 0,-0.953 0.832,-1.012 1.195,-1.012 z m 1.73,-3.945 v 0.949 h -0.539 v 0.539 h 0.539 v 2.527 c 0,0.598 0.082,0.891 0.258,1.09 0.164,0.188 0.41,0.27 0.68,0.27 0.222,0 0.39,-0.036 0.519,-0.082 l -0.023,-0.528 c -0.082,0.024 -0.176,0.024 -0.285,0.024 -0.258,0 -0.457,-0.153 -0.457,-0.715 v -2.586 h 0.836 v -0.539 h -0.836 v -1.149 z m 4.582,3.203 c 0.012,-0.118 0.012,-0.235 0.012,-0.399 0,-0.984 -0.351,-1.926 -1.242,-1.926 -0.879,0 -1.477,0.879 -1.477,2.301 0,1.34 0.539,2.196 1.594,2.196 0.34,0 0.703,-0.082 0.949,-0.211 l -0.105,-0.516 c -0.176,0.105 -0.422,0.176 -0.727,0.176 -0.504,0 -1.019,-0.293 -1.031,-1.621 z m -2.015,-0.516 c 0.023,-0.598 0.258,-1.269 0.703,-1.269 0.34,0 0.668,0.39 0.656,1.269 z m 3.84,2.629 h 2.5 v -0.574 h -1.711 v -0.024 c 0.105,-0.199 0.234,-0.422 0.351,-0.644 l 1.36,-2.668 v -0.457 h -2.325 V 233 h 1.563 v 0.023 c -0.106,0.2 -0.235,0.426 -0.352,0.649 l -1.386,2.699 z m 4.328,-4.438 c -0.75,0 -1.465,0.668 -1.465,2.266 0,1.527 0.633,2.242 1.418,2.242 0.668,0 1.457,-0.562 1.457,-2.254 0,-1.527 -0.637,-2.254 -1.41,-2.254 z m -0.035,0.563 c 0.621,0 0.738,1.023 0.738,1.691 0,0.68 -0.117,1.703 -0.715,1.703 -0.633,0 -0.762,-0.972 -0.762,-1.703 0,-0.668 0.117,-1.691 0.739,-1.691 z m 2.21,3.875 h 0.704 v -2.746 c 0,-0.152 0,-0.281 0.023,-0.387 0.094,-0.472 0.363,-0.719 0.656,-0.719 0.504,0 0.598,0.532 0.598,1.036 v 2.816 h 0.703 v -2.934 c 0,-1.047 -0.457,-1.504 -1.055,-1.504 -0.457,0 -0.808,0.247 -1.007,0.598 h -0.012 l -0.035,-0.527 h -0.61 c 0.012,0.351 0.035,0.621 0.035,1.129 z m 6.168,-2.113 c 0.012,-0.118 0.012,-0.235 0.012,-0.399 0,-0.984 -0.351,-1.926 -1.242,-1.926 -0.883,0 -1.481,0.879 -1.481,2.301 0,1.34 0.54,2.196 1.598,2.196 0.34,0 0.703,-0.082 0.949,-0.211 l -0.105,-0.516 c -0.176,0.105 -0.422,0.176 -0.727,0.176 -0.504,0 -1.023,-0.293 -1.035,-1.621 z m -2.019,-0.516 c 0.023,-0.598 0.258,-1.269 0.707,-1.269 0.34,0 0.668,0.39 0.656,1.269 z m -32.219,11.648 c -0.047,-0.285 -0.047,-0.66 -0.047,-0.988 v -1.89 c 0,-0.985 -0.375,-1.563 -1.258,-1.563 -0.433,0 -0.832,0.152 -1.007,0.297 l 0.152,0.48 c 0.199,-0.128 0.445,-0.222 0.715,-0.222 0.555,0 0.695,0.41 0.695,0.984 v 0.141 c -0.988,0.011 -1.855,0.492 -1.855,1.586 0,0.75 0.445,1.246 1.031,1.246 0.375,0 0.684,-0.203 0.871,-0.531 h 0.023 l 0.047,0.46 z m -0.726,-1.374 c 0,0.07 0,0.164 -0.024,0.246 -0.082,0.433 -0.344,0.656 -0.648,0.656 -0.246,0 -0.528,-0.211 -0.528,-0.774 0,-0.953 0.832,-1.011 1.2,-1.011 z m 1.644,1.374 h 0.707 v -2.75 c 0,-0.152 0,-0.281 0.024,-0.386 0.093,-0.469 0.363,-0.715 0.656,-0.715 0.504,0 0.598,0.527 0.598,1.031 v 2.82 h 0.703 v -2.937 c 0,-1.043 -0.457,-1.504 -1.055,-1.504 -0.457,0 -0.809,0.25 -1.008,0.602 h -0.012 l -0.035,-0.532 h -0.613 c 0.012,0.356 0.035,0.625 0.035,1.129 z m 5.598,-6.234 v 2.324 h -0.024 c -0.175,-0.379 -0.48,-0.531 -0.8,-0.531 -0.668,0 -1.313,0.731 -1.313,2.281 0,1.43 0.539,2.231 1.277,2.231 0.461,0 0.766,-0.309 0.907,-0.625 h 0.035 l 0.035,0.554 h 0.598 c -0.012,-0.261 -0.036,-0.753 -0.036,-1.046 v -5.188 z m 0,4.695 c 0,0.106 -0.012,0.2 -0.035,0.282 -0.153,0.633 -0.446,0.75 -0.672,0.75 -0.504,0 -0.739,-0.739 -0.739,-1.653 0,-0.882 0.2,-1.679 0.786,-1.679 0.332,0 0.601,0.398 0.648,0.843 0.012,0.094 0.012,0.2 0.012,0.293 z m 5.101,0.891 c -0.164,0.082 -0.316,0.117 -0.504,0.117 -0.636,0 -1.035,-0.609 -1.035,-1.629 0,-0.859 0.317,-1.679 1.012,-1.679 0.234,0 0.41,0.07 0.504,0.117 l 0.129,-0.578 c -0.117,-0.071 -0.375,-0.129 -0.61,-0.129 -1.093,0 -1.726,1.023 -1.726,2.269 0,1.442 0.644,2.219 1.598,2.219 0.304,0 0.574,-0.082 0.726,-0.164 z m 1.903,-3.793 c -0.75,0 -1.465,0.672 -1.465,2.27 0,1.523 0.633,2.242 1.418,2.242 0.668,0 1.453,-0.567 1.453,-2.254 0,-1.527 -0.633,-2.258 -1.406,-2.258 z m -0.035,0.567 c 0.621,0 0.738,1.019 0.738,1.691 0,0.68 -0.117,1.699 -0.715,1.699 -0.633,0 -0.762,-0.973 -0.762,-1.699 0,-0.672 0.117,-1.691 0.739,-1.691 z m 2.207,3.874 h 0.703 v -2.75 c 0,-0.152 0,-0.281 0.023,-0.386 0.094,-0.469 0.363,-0.715 0.656,-0.715 0.508,0 0.602,0.527 0.602,1.031 v 2.82 h 0.703 v -2.937 c 0,-1.043 -0.457,-1.504 -1.059,-1.504 -0.457,0 -0.808,0.25 -1.007,0.602 h -0.012 l -0.035,-0.532 h -0.61 c 0.012,0.356 0.036,0.625 0.036,1.129 z m 3.757,-5.32 v 0.949 h -0.539 v 0.543 h 0.539 v 2.524 c 0,0.597 0.082,0.89 0.258,1.09 0.168,0.191 0.414,0.273 0.684,0.273 0.222,0 0.386,-0.035 0.515,-0.082 l -0.023,-0.531 c -0.082,0.023 -0.176,0.023 -0.281,0.023 -0.258,0 -0.457,-0.152 -0.457,-0.715 v -2.582 h 0.832 v -0.543 h -0.832 v -1.148 z m 2.836,5.32 v -4.371 h -0.703 v 4.371 z m -0.363,-5.941 c -0.223,0 -0.41,0.176 -0.41,0.445 0,0.27 0.176,0.457 0.398,0.457 0.258,0 0.434,-0.187 0.422,-0.457 0,-0.269 -0.164,-0.445 -0.41,-0.445 z m 1.316,5.941 h 0.704 v -2.75 c 0,-0.152 0,-0.281 0.023,-0.386 0.094,-0.469 0.363,-0.715 0.66,-0.715 0.504,0 0.598,0.527 0.598,1.031 v 2.82 h 0.703 v -2.937 c 0,-1.043 -0.457,-1.504 -1.055,-1.504 -0.461,0 -0.812,0.25 -1.011,0.602 h -0.012 l -0.035,-0.532 h -0.61 c 0.012,0.356 0.035,0.625 0.035,1.129 z m 6.172,-2.113 c 0.012,-0.121 0.012,-0.238 0.012,-0.402 0,-0.985 -0.352,-1.926 -1.242,-1.926 -0.879,0 -1.477,0.883 -1.477,2.305 0,1.336 0.539,2.195 1.594,2.195 0.34,0 0.703,-0.082 0.949,-0.215 l -0.105,-0.515 c -0.176,0.105 -0.422,0.175 -0.727,0.175 -0.504,0 -1.019,-0.293 -1.031,-1.617 z m -2.015,-0.519 c 0.023,-0.598 0.258,-1.266 0.703,-1.266 0.34,0 0.668,0.387 0.656,1.266 z m 2.765,2.632 h 0.703 v -2.75 c 0,-0.152 0,-0.281 0.024,-0.386 0.094,-0.469 0.363,-0.715 0.656,-0.715 0.504,0 0.598,0.527 0.598,1.031 v 2.82 h 0.703 v -2.937 c 0,-1.043 -0.457,-1.504 -1.055,-1.504 -0.457,0 -0.808,0.25 -1.008,0.602 h -0.011 l -0.035,-0.532 h -0.61 c 0.012,0.356 0.035,0.625 0.035,1.129 z m 3.754,-5.32 v 0.949 h -0.539 v 0.543 h 0.539 v 2.524 c 0,0.597 0.082,0.89 0.258,1.09 0.164,0.191 0.41,0.273 0.68,0.273 0.226,0 0.39,-0.035 0.519,-0.082 l -0.023,-0.531 c -0.082,0.023 -0.176,0.023 -0.281,0.023 -0.262,0 -0.461,-0.152 -0.461,-0.715 v -2.582 h 0.836 v -0.543 h -0.836 v -1.148 z M 69.078,227.562 c -0.152,0.071 -0.387,0.129 -0.644,0.129 -0.739,0 -1.418,-0.609 -1.418,-2.464 0,-1.856 0.75,-2.489 1.406,-2.489 0.305,0 0.469,0.059 0.609,0.129 l 0.153,-0.59 c -0.129,-0.082 -0.387,-0.152 -0.762,-0.152 -0.949,0 -2.133,0.766 -2.133,3.16 0,2.067 0.844,3.027 2.027,3.027 0.375,0 0.68,-0.07 0.868,-0.164 z m 0.817,-5.39 v 6.082 h 0.691 v -2.84 h 1.703 v 2.84 h 0.703 v -6.082 h -0.703 v 2.609 h -1.703 v -2.609 z m 6.386,2.609 h -1.523 v -1.996 h 1.617 v -0.613 h -2.313 v 6.082 h 2.43 v -0.598 h -1.734 v -2.289 h 1.523 z m 0.973,3.473 h 2.406 v -0.586 h -1.715 v -5.496 h -0.691 z m 2.816,-0.211 c 0.164,0.129 0.61,0.269 1.02,0.269 0.961,0 1.699,-0.656 1.699,-1.71 0,-0.672 -0.316,-1.235 -1.055,-1.75 -0.574,-0.414 -0.89,-0.649 -0.89,-1.247 0,-0.421 0.281,-0.867 0.879,-0.867 0.316,0 0.562,0.094 0.715,0.211 l 0.175,-0.601 c -0.14,-0.106 -0.48,-0.223 -0.855,-0.223 -0.961,0 -1.606,0.672 -1.606,1.598 0,0.789 0.668,1.351 1.149,1.679 0.469,0.364 0.797,0.703 0.797,1.27 0,0.609 -0.375,1.019 -1.008,1.019 -0.305,0 -0.668,-0.105 -0.867,-0.234 z m 5.61,-1.609 0.398,1.82 h 0.692 l -1.36,-6.082 h -0.765 l -1.383,6.082 h 0.668 l 0.398,-1.82 z m -1.246,-0.563 0.316,-1.539 c 0.086,-0.41 0.168,-0.926 0.238,-1.383 h 0.035 c 0.082,0.446 0.153,0.949 0.247,1.383 l 0.316,1.539 z m 2.82,-0.234 v 0.539 h 1.969 v -0.539 z m -20.668,11.636 h 0.691 v -5.461 h 1.102 v -0.621 h -2.91 v 0.621 h 1.117 z m 1.926,0 h 0.691 v -2.418 c 0,-0.144 0.012,-0.285 0.024,-0.402 0.07,-0.504 0.398,-0.902 0.843,-0.902 0.047,0 0.094,0 0.141,0.011 v -0.714 c -0.047,0 -0.094,-0.012 -0.141,-0.012 -0.41,0 -0.773,0.34 -0.925,0.762 h -0.012 l -0.035,-0.692 h -0.621 c 0,0.328 0.035,0.762 0.035,1.125 z m 4.539,0 c -0.047,-0.281 -0.047,-0.66 -0.047,-0.988 v -1.89 c 0,-0.985 -0.375,-1.559 -1.258,-1.559 -0.434,0 -0.832,0.152 -1.008,0.293 l 0.153,0.48 c 0.199,-0.129 0.445,-0.222 0.714,-0.222 0.555,0 0.696,0.41 0.696,0.984 v 0.141 c -0.989,0.011 -1.856,0.496 -1.856,1.586 0,0.75 0.446,1.246 1.032,1.246 0.375,0 0.683,-0.199 0.871,-0.532 h 0.023 l 0.047,0.461 z m -0.727,-1.375 c 0,0.071 0,0.164 -0.023,0.247 -0.082,0.433 -0.344,0.656 -0.649,0.656 -0.246,0 -0.527,-0.211 -0.527,-0.774 0,-0.949 0.832,-1.007 1.199,-1.007 z m 4.25,0.68 c -0.152,0.07 -0.386,0.129 -0.644,0.129 -0.739,0 -1.418,-0.609 -1.418,-2.465 0,-1.855 0.75,-2.488 1.406,-2.488 0.305,0 0.469,0.058 0.609,0.129 l 0.153,-0.586 c -0.129,-0.082 -0.387,-0.152 -0.762,-0.152 -0.949,0 -2.137,0.761 -2.137,3.156 0,2.066 0.848,3.031 2.031,3.031 0.376,0 0.68,-0.07 0.868,-0.164 z m 3.031,-2.781 h -1.523 v -1.996 h 1.617 v -0.61 h -2.308 v 6.082 h 2.425 v -0.601 h -1.734 v -2.289 h 1.523 z m 3.54,3.476 v -0.613 h -1.957 v -0.023 l 0.398,-0.539 c 0.726,-0.985 1.441,-2.055 1.441,-3.157 0,-0.882 -0.422,-1.597 -1.394,-1.597 -0.528,0 -0.938,0.222 -1.149,0.386 l 0.176,0.528 c 0.152,-0.094 0.422,-0.328 0.844,-0.328 0.551,0 0.844,0.398 0.844,1.047 0,1.101 -0.832,2.207 -1.524,3.168 l -0.492,0.679 v 0.449 z m 2.05,0 h 0.692 v -5.859 h -0.575 l -1.242,0.715 0.141,0.539 0.973,-0.551 h 0.011 z m 2.953,-6.234 h -0.691 v 6.234 h 0.691 v -1.656 l 0.247,-0.398 0.937,2.054 h 0.773 l -1.242,-2.527 1.149,-1.84 h -0.75 l -0.867,1.547 c -0.083,0.141 -0.153,0.305 -0.235,0.485 h -0.012 z m -30.113,16.977 h 0.692 v -2.161 h 0.011 c 0.117,0.247 0.352,0.504 0.762,0.504 0.68,0 1.348,-0.644 1.348,-2.265 0,-1.434 -0.504,-2.242 -1.254,-2.242 -0.352,0 -0.692,0.164 -0.926,0.632 h -0.012 l -0.035,-0.562 H 58 c 0,0.305 0.035,0.691 0.035,1.363 z m 0.692,-4.438 c 0,-0.117 0,-0.223 0.011,-0.34 0.047,-0.39 0.328,-0.789 0.645,-0.789 0.551,0 0.762,0.754 0.762,1.656 0,0.879 -0.176,1.68 -0.75,1.68 -0.188,0 -0.504,-0.117 -0.645,-0.742 -0.023,-0.094 -0.023,-0.223 -0.023,-0.363 z m 5.261,2.711 c -0.05,-0.281 -0.05,-0.656 -0.05,-0.984 v -1.891 c 0,-0.988 -0.376,-1.562 -1.254,-1.562 -0.434,0 -0.832,0.152 -1.008,0.293 l 0.152,0.48 c 0.199,-0.129 0.445,-0.223 0.715,-0.223 0.551,0 0.691,0.41 0.691,0.989 v 0.14 c -0.984,0.012 -1.851,0.492 -1.851,1.582 0,0.754 0.445,1.246 1.031,1.246 0.375,0 0.68,-0.199 0.867,-0.527 h 0.024 l 0.047,0.457 z m -0.73,-1.375 c 0,0.07 0,0.164 -0.024,0.246 -0.082,0.438 -0.339,0.66 -0.644,0.66 -0.246,0 -0.528,-0.211 -0.528,-0.777 0,-0.949 0.833,-1.008 1.196,-1.008 z m 1.648,1.375 h 0.703 v -6.234 h -0.703 z m 4.078,0 c -0.046,-0.281 -0.046,-0.656 -0.046,-0.984 v -1.891 c 0,-0.988 -0.376,-1.562 -1.254,-1.562 -0.434,0 -0.832,0.152 -1.008,0.293 l 0.152,0.48 c 0.199,-0.129 0.445,-0.223 0.715,-0.223 0.551,0 0.691,0.41 0.691,0.989 v 0.14 c -0.984,0.012 -1.851,0.492 -1.851,1.582 0,0.754 0.445,1.246 1.031,1.246 0.375,0 0.68,-0.199 0.867,-0.527 h 0.024 l 0.047,0.457 z m -0.726,-1.375 c 0,0.07 0,0.164 -0.024,0.246 -0.082,0.438 -0.339,0.66 -0.644,0.66 -0.246,0 -0.528,-0.211 -0.528,-0.777 0,-0.949 0.833,-1.008 1.196,-1.008 z m 4.172,-0.738 c 0.011,-0.117 0.011,-0.235 0.011,-0.399 0,-0.988 -0.351,-1.925 -1.246,-1.925 -0.879,0 -1.476,0.878 -1.476,2.3 0,1.34 0.539,2.196 1.593,2.196 0.34,0 0.704,-0.082 0.954,-0.211 l -0.106,-0.516 c -0.18,0.106 -0.426,0.176 -0.73,0.176 -0.504,0 -1.02,-0.293 -1.032,-1.621 z m -2.02,-0.516 c 0.024,-0.601 0.258,-1.269 0.703,-1.269 0.34,0 0.668,0.386 0.657,1.269 z m 4.043,-1.808 c -0.75,0 -1.465,0.668 -1.465,2.265 0,1.528 0.633,2.242 1.418,2.242 0.668,0 1.457,-0.562 1.457,-2.254 0,-1.527 -0.636,-2.253 -1.41,-2.253 z m -0.035,0.562 c 0.621,0 0.738,1.024 0.738,1.691 0,0.68 -0.117,1.704 -0.715,1.704 -0.632,0 -0.761,-0.977 -0.761,-1.704 0,-0.667 0.117,-1.691 0.738,-1.691 z m 4.25,3.231 c -0.164,0.082 -0.316,0.117 -0.504,0.117 -0.633,0 -1.031,-0.614 -1.031,-1.633 0,-0.856 0.316,-1.68 1.008,-1.68 0.234,0 0.41,0.071 0.504,0.117 l 0.128,-0.574 c -0.117,-0.07 -0.375,-0.129 -0.609,-0.129 -1.09,0 -1.726,1.02 -1.726,2.266 0,1.445 0.648,2.219 1.597,2.219 0.305,0 0.574,-0.082 0.727,-0.164 z m 0.68,0.644 h 0.703 v -6.234 h -0.703 z m 2.425,0 v -4.367 H 81.07 v 4.367 z m -0.363,-5.941 c -0.222,0 -0.41,0.175 -0.41,0.445 0,0.273 0.176,0.461 0.398,0.461 0.258,0 0.434,-0.188 0.422,-0.461 0,-0.27 -0.164,-0.445 -0.41,-0.445 z m 1.317,5.941 h 0.691 v -2.769 c 0,-0.129 0.012,-0.258 0.023,-0.375 0.082,-0.461 0.375,-0.707 0.645,-0.707 0.516,0 0.609,0.503 0.609,1 v 2.851 h 0.68 v -2.805 c 0,-0.14 0.012,-0.281 0.035,-0.402 0.094,-0.398 0.352,-0.644 0.637,-0.644 0.527,0 0.609,0.55 0.609,1.117 v 2.734 h 0.692 v -2.898 c 0,-1.106 -0.457,-1.539 -1.043,-1.539 -0.235,0 -0.438,0.058 -0.614,0.175 -0.164,0.106 -0.316,0.282 -0.433,0.493 h -0.012 c -0.164,-0.469 -0.504,-0.668 -0.914,-0.668 -0.457,0 -0.785,0.257 -0.984,0.609 h -0.012 l -0.035,-0.539 h -0.61 c 0.012,0.351 0.036,0.621 0.036,1.125 z m 7.941,0 c -0.047,-0.281 -0.047,-0.656 -0.047,-0.984 v -1.891 c 0,-0.988 -0.379,-1.562 -1.258,-1.562 -0.433,0 -0.832,0.152 -1.008,0.293 l 0.153,0.48 c 0.199,-0.129 0.445,-0.223 0.715,-0.223 0.55,0 0.691,0.41 0.691,0.989 v 0.14 c -0.984,0.012 -1.852,0.492 -1.852,1.582 0,0.754 0.446,1.246 1.032,1.246 0.375,0 0.679,-0.199 0.867,-0.527 h 0.023 l 0.047,0.457 z m -0.73,-1.375 c 0,0.07 0,0.164 -0.024,0.246 -0.082,0.438 -0.34,0.66 -0.644,0.66 -0.247,0 -0.528,-0.211 -0.528,-0.777 0,-0.949 0.832,-1.008 1.196,-1.008 z m 1.734,-3.945 v 0.953 h -0.539 v 0.539 h 0.539 v 2.523 c 0,0.602 0.082,0.895 0.258,1.094 0.164,0.188 0.41,0.27 0.679,0.27 0.223,0 0.387,-0.036 0.516,-0.082 l -0.023,-0.528 c -0.082,0.024 -0.176,0.024 -0.282,0.024 -0.258,0 -0.457,-0.153 -0.457,-0.719 v -2.582 h 0.832 v -0.539 h -0.832 v -1.152 z m 4.582,3.207 c 0.012,-0.117 0.012,-0.235 0.012,-0.399 0,-0.988 -0.352,-1.925 -1.243,-1.925 -0.878,0 -1.476,0.878 -1.476,2.3 0,1.34 0.539,2.196 1.594,2.196 0.339,0 0.703,-0.082 0.949,-0.211 l -0.106,-0.516 c -0.175,0.106 -0.422,0.176 -0.726,0.176 -0.504,0 -1.02,-0.293 -1.031,-1.621 z m -2.016,-0.516 c 0.024,-0.601 0.258,-1.269 0.703,-1.269 0.34,0 0.668,0.386 0.657,1.269 z m 70.508,-18.887 h 0.645 l -0.34,-6.082 h -0.789 l -0.68,2.786 c -0.199,0.82 -0.328,1.394 -0.445,2.089 h -0.035 c -0.118,-0.695 -0.27,-1.293 -0.481,-2.089 l -0.715,-2.786 h -0.738 l -0.363,6.082 h 0.621 l 0.117,-2.57 c 0.035,-0.871 0.07,-1.715 0.07,-2.418 h 0.024 c 0.117,0.692 0.304,1.442 0.492,2.219 l 0.715,2.734 h 0.445 l 0.75,-2.851 c 0.188,-0.707 0.34,-1.434 0.481,-2.102 h 0.035 c -0.024,0.68 0.023,1.574 0.058,2.371 z m 3.606,-1.82 0.398,1.82 h 0.691 l -1.359,-6.082 h -0.762 l -1.386,6.082 h 0.668 l 0.402,-1.82 z m -1.243,-0.562 0.317,-1.539 c 0.082,-0.411 0.164,-0.926 0.234,-1.383 h 0.035 c 0.082,0.445 0.153,0.949 0.246,1.383 l 0.317,1.539 z m 3.258,2.382 h 0.692 v -5.457 h 1.105 v -0.625 h -2.91 v 0.625 h 1.113 z m 4.535,-2.324 c 0.61,0 1.043,-0.574 1.043,-1.82 0,-1.043 -0.304,-1.785 -1.007,-1.785 -0.668,0 -1.071,0.695 -1.071,1.808 0,1.071 0.356,1.797 1.035,1.797 z m 0.012,-0.457 c -0.328,0 -0.492,-0.504 -0.492,-1.363 0,-0.832 0.176,-1.336 0.504,-1.336 0.328,0 0.469,0.527 0.469,1.336 0,0.859 -0.153,1.363 -0.481,1.363 z m 4.274,2.09 c -0.153,0.07 -0.387,0.129 -0.645,0.129 -0.738,0 -1.418,-0.609 -1.418,-2.465 0,-1.855 0.75,-2.492 1.406,-2.492 0.305,0 0.469,0.062 0.61,0.133 l 0.152,-0.59 c -0.129,-0.082 -0.387,-0.152 -0.762,-0.152 -0.949,0 -2.133,0.765 -2.133,3.16 0,2.066 0.844,3.027 2.028,3.027 0.375,0 0.679,-0.07 0.867,-0.164 z m -15.727,9.016 c -0.152,0.07 -0.387,0.129 -0.645,0.129 -0.742,0 -1.421,-0.61 -1.421,-2.465 0,-1.856 0.75,-2.489 1.41,-2.489 0.304,0 0.468,0.059 0.609,0.129 l 0.152,-0.586 c -0.128,-0.082 -0.386,-0.152 -0.761,-0.152 -0.953,0 -2.137,0.762 -2.137,3.156 0,2.067 0.844,3.032 2.031,3.032 0.375,0 0.68,-0.075 0.867,-0.168 z m 1.871,-3.746 c -0.75,0 -1.465,0.671 -1.465,2.265 0,1.528 0.633,2.246 1.418,2.246 0.672,0 1.457,-0.566 1.457,-2.258 0,-1.523 -0.633,-2.253 -1.41,-2.253 z m -0.035,0.566 c 0.625,0 0.742,1.02 0.742,1.687 0,0.684 -0.117,1.704 -0.719,1.704 -0.632,0 -0.761,-0.973 -0.761,-1.704 0,-0.667 0.117,-1.687 0.738,-1.687 z m 2.207,3.875 h 0.703 v -6.238 h -0.703 z m 3.668,-6.238 v 2.328 h -0.024 c -0.175,-0.379 -0.48,-0.531 -0.796,-0.531 -0.668,0 -1.317,0.73 -1.317,2.277 0,1.433 0.543,2.234 1.281,2.234 0.457,0 0.762,-0.308 0.903,-0.625 h 0.035 l 0.035,0.555 h 0.598 c -0.012,-0.262 -0.035,-0.754 -0.035,-1.047 v -5.191 z m 0,4.699 c 0,0.105 -0.012,0.199 -0.035,0.281 -0.153,0.633 -0.446,0.75 -0.668,0.75 -0.504,0 -0.739,-0.738 -0.739,-1.656 0,-0.879 0.2,-1.676 0.786,-1.676 0.328,0 0.597,0.399 0.644,0.844 0.012,0.094 0.012,0.199 0.012,0.293 z m 3.766,-0.789 c 0.609,0 1.042,-0.574 1.042,-1.817 0,-1.046 -0.304,-1.785 -1.007,-1.785 -0.668,0 -1.071,0.692 -1.071,1.809 0,1.066 0.356,1.793 1.036,1.793 z m 0.011,-0.457 c -0.328,0 -0.492,-0.504 -0.492,-1.36 0,-0.836 0.176,-1.339 0.504,-1.339 0.328,0 0.469,0.527 0.469,1.339 0,0.856 -0.153,1.36 -0.481,1.36 z m 4.274,2.09 c -0.153,0.07 -0.387,0.129 -0.645,0.129 -0.738,0 -1.418,-0.61 -1.418,-2.465 0,-1.856 0.75,-2.489 1.406,-2.489 0.305,0 0.469,0.059 0.61,0.129 l 0.152,-0.586 c -0.129,-0.082 -0.387,-0.152 -0.762,-0.152 -0.949,0 -2.132,0.762 -2.132,3.156 0,2.067 0.843,3.032 2.027,3.032 0.375,0 0.68,-0.075 0.867,-0.168 z m -27.356,9.5 c 0.168,0.129 0.613,0.269 1.024,0.269 0.961,0 1.699,-0.656 1.699,-1.715 0,-0.668 -0.317,-1.234 -1.055,-1.75 -0.574,-0.41 -0.89,-0.644 -0.89,-1.242 0,-0.426 0.281,-0.871 0.878,-0.871 0.317,0 0.563,0.094 0.715,0.211 l 0.176,-0.598 c -0.141,-0.105 -0.48,-0.222 -0.855,-0.222 -0.961,0 -1.61,0.668 -1.61,1.597 0,0.785 0.672,1.348 1.153,1.676 0.468,0.367 0.796,0.707 0.796,1.27 0,0.609 -0.375,1.023 -1.007,1.023 -0.305,0 -0.668,-0.105 -0.868,-0.238 z m 6.141,-4.157 h -0.696 v 2.875 c 0,0.153 -0.011,0.282 -0.035,0.399 -0.035,0.199 -0.211,0.578 -0.621,0.578 -0.48,0 -0.586,-0.508 -0.586,-1.188 v -2.664 h -0.691 v 2.758 c 0,1.082 0.293,1.68 1.066,1.68 0.457,0 0.797,-0.317 0.926,-0.527 h 0.024 l 0.046,0.457 h 0.602 c -0.012,-0.329 -0.035,-0.704 -0.035,-1.188 z m 0.965,4.368 h 0.691 v -2.77 c 0,-0.133 0.012,-0.262 0.024,-0.379 0.082,-0.457 0.374,-0.703 0.648,-0.703 0.516,0 0.609,0.504 0.609,0.996 v 2.856 h 0.68 v -2.805 c 0,-0.145 0.012,-0.285 0.035,-0.402 0.094,-0.399 0.352,-0.645 0.633,-0.645 0.527,0 0.609,0.551 0.609,1.117 v 2.735 h 0.692 v -2.903 c 0,-1.101 -0.457,-1.535 -1.043,-1.535 -0.235,0 -0.434,0.059 -0.61,0.176 -0.164,0.105 -0.316,0.281 -0.433,0.492 h -0.012 c -0.164,-0.469 -0.504,-0.668 -0.914,-0.668 -0.457,0 -0.789,0.258 -0.988,0.609 h -0.012 l -0.035,-0.539 h -0.609 c 0.011,0.352 0.035,0.621 0.035,1.125 z m 5.586,0 h 0.691 v -2.77 c 0,-0.133 0.012,-0.262 0.023,-0.379 0.082,-0.457 0.375,-0.703 0.645,-0.703 0.52,0 0.613,0.504 0.613,0.996 v 2.856 h 0.68 v -2.805 c 0,-0.145 0.012,-0.285 0.035,-0.402 0.094,-0.399 0.352,-0.645 0.633,-0.645 0.527,0 0.609,0.551 0.609,1.117 v 2.735 h 0.692 v -2.903 c 0,-1.101 -0.457,-1.535 -1.043,-1.535 -0.235,0 -0.434,0.059 -0.61,0.176 -0.164,0.105 -0.316,0.281 -0.433,0.492 h -0.012 c -0.164,-0.469 -0.504,-0.668 -0.914,-0.668 -0.461,0 -0.789,0.258 -0.988,0.609 h -0.012 l -0.035,-0.539 h -0.61 c 0.012,0.352 0.036,0.621 0.036,1.125 z m 8.109,-2.114 c 0.012,-0.117 0.012,-0.234 0.012,-0.398 0,-0.988 -0.352,-1.926 -1.246,-1.926 -0.879,0 -1.477,0.879 -1.477,2.301 0,1.336 0.539,2.195 1.594,2.195 0.344,0 0.707,-0.082 0.953,-0.211 l -0.106,-0.515 c -0.175,0.105 -0.421,0.175 -0.73,0.175 -0.504,0 -1.02,-0.296 -1.031,-1.621 z m -2.02,-0.515 c 0.024,-0.602 0.258,-1.27 0.704,-1.27 0.339,0 0.671,0.387 0.66,1.27 z m 2.766,2.629 h 0.691 v -2.418 c 0,-0.141 0.012,-0.282 0.024,-0.403 0.07,-0.504 0.398,-0.902 0.844,-0.902 0.047,0 0.093,0 0.14,0.012 v -0.715 c -0.047,0 -0.093,-0.012 -0.14,-0.012 -0.411,0 -0.774,0.34 -0.926,0.762 h -0.012 L 174,238.441 h -0.621 c 0,0.329 0.035,0.762 0.035,1.125 z m 3.648,1.726 h 0.692 v -2.16 h 0.012 c 0.117,0.246 0.351,0.504 0.761,0.504 0.68,0 1.352,-0.645 1.352,-2.266 0,-1.433 -0.508,-2.242 -1.258,-2.242 -0.351,0 -0.691,0.164 -0.926,0.633 h -0.011 l -0.036,-0.563 h -0.621 c 0,0.305 0.035,0.692 0.035,1.36 z m 0.692,-4.437 c 0,-0.121 0,-0.227 0.012,-0.344 0.046,-0.387 0.328,-0.785 0.644,-0.785 0.551,0 0.762,0.75 0.762,1.656 0,0.879 -0.176,1.68 -0.75,1.68 -0.188,0 -0.504,-0.117 -0.645,-0.743 -0.023,-0.093 -0.023,-0.222 -0.023,-0.363 z m 2.902,2.711 h 0.692 v -2.418 c 0,-0.141 0.011,-0.282 0.023,-0.403 0.07,-0.504 0.399,-0.902 0.848,-0.902 0.047,0 0.093,0 0.14,0.012 v -0.715 c -0.047,0 -0.093,-0.012 -0.14,-0.012 -0.414,0 -0.778,0.34 -0.93,0.762 h -0.012 l -0.035,-0.692 h -0.621 c 0,0.329 0.035,0.762 0.035,1.125 z m 4.629,-2.114 c 0.012,-0.117 0.012,-0.234 0.012,-0.398 0,-0.988 -0.352,-1.926 -1.242,-1.926 -0.879,0 -1.477,0.879 -1.477,2.301 0,1.336 0.539,2.195 1.594,2.195 0.34,0 0.703,-0.082 0.949,-0.211 l -0.105,-0.515 c -0.176,0.105 -0.422,0.175 -0.727,0.175 -0.504,0 -1.019,-0.296 -1.031,-1.621 z m -2.015,-0.515 c 0.023,-0.602 0.257,-1.27 0.703,-1.27 0.339,0 0.668,0.387 0.656,1.27 z m 4.804,1.984 c -0.164,0.082 -0.316,0.117 -0.504,0.117 -0.632,0 -1.031,-0.613 -1.031,-1.633 0,-0.859 0.316,-1.679 1.008,-1.679 0.234,0 0.41,0.07 0.504,0.117 l 0.129,-0.574 c -0.118,-0.071 -0.375,-0.129 -0.61,-0.129 -1.09,0 -1.722,1.019 -1.722,2.265 0,1.446 0.644,2.219 1.593,2.219 0.305,0 0.575,-0.082 0.727,-0.164 z m -32.019,9.66 0.613,-2.933 c 0.141,-0.672 0.246,-1.329 0.328,-2.02 h 0.024 c 0.07,0.668 0.187,1.359 0.304,1.996 l 0.586,2.957 h 0.68 l 1.172,-6.082 h -0.668 l -0.504,2.903 c -0.117,0.691 -0.235,1.347 -0.328,2.23 h -0.024 c -0.082,-0.859 -0.222,-1.551 -0.351,-2.266 l -0.563,-2.867 h -0.597 l -0.555,2.926 c -0.152,0.773 -0.293,1.43 -0.363,2.207 h -0.036 c -0.07,-0.754 -0.175,-1.434 -0.293,-2.195 l -0.515,-2.938 h -0.727 l 1.172,6.082 z m 4.855,0 v -4.367 h -0.703 v 4.367 z m -0.363,-5.941 c -0.223,0 -0.41,0.176 -0.41,0.449 0,0.27 0.175,0.457 0.398,0.457 0.258,0 0.434,-0.187 0.422,-0.457 0,-0.273 -0.164,-0.449 -0.41,-0.449 z m 1.316,5.941 h 0.707 v -2.746 c 0,-0.152 0,-0.281 0.024,-0.387 0.094,-0.472 0.363,-0.718 0.656,-0.718 0.504,0 0.598,0.531 0.598,1.035 v 2.816 h 0.703 v -2.933 c 0,-1.047 -0.457,-1.504 -1.055,-1.504 -0.457,0 -0.808,0.246 -1.008,0.597 h -0.011 l -0.036,-0.527 h -0.613 c 0.012,0.352 0.035,0.621 0.035,1.129 z m 3.762,-5.316 v 0.949 h -0.539 v 0.539 h 0.539 v 2.527 c 0,0.598 0.082,0.891 0.258,1.09 0.164,0.188 0.41,0.27 0.679,0.27 0.223,0 0.387,-0.035 0.516,-0.082 l -0.023,-0.528 c -0.082,0.024 -0.176,0.024 -0.282,0.024 -0.257,0 -0.457,-0.152 -0.457,-0.715 v -2.586 h 0.832 v -0.539 h -0.832 v -1.148 z m 4.582,3.203 c 0.012,-0.117 0.012,-0.234 0.012,-0.399 0,-0.984 -0.352,-1.925 -1.242,-1.925 -0.883,0 -1.481,0.879 -1.481,2.301 0,1.339 0.539,2.195 1.598,2.195 0.34,0 0.703,-0.082 0.949,-0.211 l -0.105,-0.516 c -0.176,0.106 -0.422,0.176 -0.727,0.176 -0.504,0 -1.023,-0.293 -1.035,-1.621 z m -2.019,-0.516 c 0.023,-0.597 0.261,-1.269 0.707,-1.269 0.339,0 0.667,0.39 0.656,1.269 z m 2.765,2.629 h 0.692 v -2.418 c 0,-0.14 0.011,-0.281 0.023,-0.398 0.07,-0.504 0.402,-0.906 0.848,-0.906 0.046,0 0.093,0 0.14,0.011 v -0.715 c -0.047,0 -0.094,-0.011 -0.14,-0.011 -0.411,0 -0.774,0.34 -0.93,0.761 h -0.012 l -0.035,-0.691 h -0.621 c 0,0.328 0.035,0.762 0.035,1.129 z m 3.649,1.727 h 0.691 v -2.16 h 0.012 c 0.117,0.246 0.351,0.504 0.761,0.504 0.684,0 1.352,-0.645 1.352,-2.266 0,-1.434 -0.504,-2.242 -1.258,-2.242 -0.351,0 -0.691,0.164 -0.926,0.633 h -0.011 l -0.035,-0.563 h -0.622 c 0,0.305 0.036,0.691 0.036,1.363 z m 0.691,-4.438 c 0,-0.117 0,-0.222 0.012,-0.34 0.047,-0.386 0.328,-0.789 0.644,-0.789 0.555,0 0.766,0.754 0.766,1.657 0,0.882 -0.176,1.679 -0.754,1.679 -0.188,0 -0.504,-0.117 -0.645,-0.738 -0.023,-0.094 -0.023,-0.223 -0.023,-0.367 z m 2.902,2.711 h 0.696 v -2.418 c 0,-0.14 0.011,-0.281 0.023,-0.398 0.07,-0.504 0.398,-0.906 0.844,-0.906 0.047,0 0.094,0 0.14,0.011 v -0.715 c -0.046,0 -0.093,-0.011 -0.14,-0.011 -0.41,0 -0.774,0.34 -0.926,0.761 h -0.012 l -0.035,-0.691 h -0.625 c 0,0.328 0.035,0.762 0.035,1.129 z m 4.633,-2.113 c 0.012,-0.117 0.012,-0.234 0.012,-0.399 0,-0.984 -0.352,-1.925 -1.246,-1.925 -0.879,0 -1.477,0.879 -1.477,2.301 0,1.339 0.539,2.195 1.594,2.195 0.34,0 0.707,-0.082 0.953,-0.211 l -0.105,-0.516 c -0.176,0.106 -0.426,0.176 -0.731,0.176 -0.504,0 -1.019,-0.293 -1.031,-1.621 z m -2.019,-0.516 c 0.023,-0.597 0.257,-1.269 0.703,-1.269 0.34,0 0.672,0.39 0.66,1.269 z m 4.808,1.985 c -0.168,0.082 -0.32,0.117 -0.508,0.117 -0.632,0 -1.031,-0.609 -1.031,-1.633 0,-0.855 0.317,-1.68 1.008,-1.68 0.234,0 0.41,0.071 0.504,0.118 l 0.133,-0.575 c -0.118,-0.07 -0.379,-0.129 -0.614,-0.129 -1.089,0 -1.722,1.024 -1.722,2.266 0,1.445 0.644,2.219 1.593,2.219 0.305,0 0.575,-0.082 0.731,-0.164 z M 62.066,180.98 c 0.211,0.047 0.493,0.059 0.774,0.059 0.703,0 1.277,-0.211 1.676,-0.656 0.386,-0.41 0.73,-1.176 0.73,-2.563 0,-1.265 -0.355,-2.054 -0.824,-2.465 -0.328,-0.293 -0.785,-0.457 -1.418,-0.457 -0.352,0 -0.668,0.036 -0.938,0.118 z m 0.692,-5.472 c 0.094,-0.035 0.222,-0.047 0.328,-0.047 0.973,0 1.441,0.848 1.441,2.371 0,2.066 -0.738,2.621 -1.511,2.621 -0.059,0 -0.153,0 -0.258,-0.012 z m 5.613,5.496 c -0.047,-0.281 -0.047,-0.656 -0.047,-0.984 v -1.891 c 0,-0.988 -0.375,-1.563 -1.254,-1.563 -0.433,0 -0.832,0.153 -1.008,0.293 l 0.153,0.481 c 0.199,-0.129 0.445,-0.223 0.715,-0.223 0.55,0 0.691,0.41 0.691,0.988 v 0.141 c -0.984,0.012 -1.851,0.492 -1.851,1.582 0,0.754 0.445,1.246 1.031,1.246 0.375,0 0.679,-0.199 0.867,-0.527 h 0.023 l 0.047,0.457 z m -0.726,-1.375 c 0,0.07 0,0.164 -0.024,0.246 -0.082,0.437 -0.34,0.66 -0.644,0.66 -0.247,0 -0.528,-0.211 -0.528,-0.777 0,-0.949 0.832,-1.008 1.196,-1.008 z m 1.734,-3.945 v 0.953 H 68.84 v 0.539 h 0.539 v 2.523 c 0,0.602 0.082,0.895 0.258,1.094 0.164,0.187 0.41,0.269 0.679,0.269 0.223,0 0.387,-0.035 0.516,-0.082 l -0.023,-0.527 c -0.082,0.024 -0.176,0.024 -0.282,0.024 -0.257,0 -0.457,-0.153 -0.457,-0.719 v -2.582 h 0.832 v -0.539 H 70.07 v -1.153 z m 4.488,5.32 C 73.82,180.723 73.82,180.348 73.82,180.02 v -1.891 c 0,-0.988 -0.375,-1.563 -1.254,-1.563 -0.433,0 -0.832,0.153 -1.007,0.293 l 0.152,0.481 c 0.199,-0.129 0.445,-0.223 0.715,-0.223 0.551,0 0.691,0.41 0.691,0.988 v 0.141 c -0.984,0.012 -1.851,0.492 -1.851,1.582 0,0.754 0.445,1.246 1.031,1.246 0.375,0 0.68,-0.199 0.867,-0.527 h 0.024 l 0.046,0.457 z m -0.726,-1.375 c 0,0.07 0,0.164 -0.024,0.246 -0.082,0.437 -0.34,0.66 -0.644,0.66 -0.246,0 -0.528,-0.211 -0.528,-0.777 0,-0.949 0.832,-1.008 1.196,-1.008 z m 2.199,1.375 0.047,-0.563 h 0.023 c 0.176,0.364 0.41,0.633 0.867,0.633 0.68,0 1.325,-0.715 1.325,-2.301 0,-1.421 -0.516,-2.207 -1.184,-2.207 -0.375,0 -0.691,0.153 -0.926,0.586 H 75.48 v -2.382 h -0.691 v 5.191 c 0,0.293 -0.035,0.785 -0.035,1.043 z m 0.14,-2.758 c 0,-0.094 0,-0.211 0.012,-0.305 0.059,-0.379 0.328,-0.777 0.656,-0.777 0.551,0 0.762,0.777 0.762,1.645 0,0.925 -0.199,1.691 -0.762,1.691 -0.187,0 -0.48,-0.117 -0.644,-0.766 -0.024,-0.07 -0.024,-0.175 -0.024,-0.269 z m 5.262,2.758 c -0.047,-0.281 -0.047,-0.656 -0.047,-0.984 v -1.891 c 0,-0.988 -0.375,-1.563 -1.257,-1.563 -0.434,0 -0.833,0.153 -1.008,0.293 l 0.152,0.481 c 0.199,-0.129 0.445,-0.223 0.715,-0.223 0.551,0 0.691,0.41 0.691,0.988 v 0.141 c -0.984,0.012 -1.851,0.492 -1.851,1.582 0,0.754 0.445,1.246 1.031,1.246 0.375,0 0.68,-0.199 0.867,-0.527 h 0.024 l 0.046,0.457 z m -0.73,-1.375 c 0,0.07 0,0.164 -0.024,0.246 -0.082,0.437 -0.34,0.66 -0.644,0.66 -0.246,0 -0.528,-0.211 -0.528,-0.777 0,-0.949 0.832,-1.008 1.196,-1.008 z m 1.367,1.176 c 0.187,0.152 0.539,0.257 0.867,0.257 0.707,0 1.305,-0.421 1.305,-1.304 0,-0.598 -0.399,-0.996 -0.903,-1.324 -0.437,-0.293 -0.543,-0.457 -0.543,-0.754 0,-0.282 0.188,-0.551 0.567,-0.551 0.234,0 0.422,0.082 0.586,0.187 l 0.187,-0.527 c -0.187,-0.105 -0.445,-0.223 -0.785,-0.223 -0.683,0 -1.199,0.504 -1.199,1.207 0,0.508 0.305,0.883 0.867,1.247 0.449,0.292 0.567,0.527 0.567,0.855 0,0.391 -0.247,0.637 -0.649,0.637 -0.269,0 -0.539,-0.129 -0.703,-0.223 z m 5.406,-1.914 c 0.012,-0.118 0.012,-0.235 0.012,-0.399 0,-0.988 -0.352,-1.926 -1.242,-1.926 -0.879,0 -1.477,0.879 -1.477,2.301 0,1.34 0.539,2.195 1.594,2.195 0.34,0 0.703,-0.082 0.949,-0.21 l -0.105,-0.516 c -0.176,0.105 -0.422,0.176 -0.727,0.176 -0.504,0 -1.019,-0.293 -1.031,-1.621 z m -2.015,-0.516 c 0.023,-0.602 0.257,-1.27 0.703,-1.27 0.339,0 0.668,0.387 0.656,1.27 z m 5.46,-1.809 c -0.75,0 -1.468,0.668 -1.468,2.266 0,1.527 0.633,2.242 1.422,2.242 0.668,0 1.453,-0.562 1.453,-2.254 0,-1.527 -0.633,-2.254 -1.407,-2.254 z m -0.035,0.563 c 0.621,0 0.739,1.023 0.739,1.691 0,0.68 -0.118,1.703 -0.715,1.703 -0.633,0 -0.762,-0.976 -0.762,-1.703 0,-0.668 0.117,-1.691 0.738,-1.691 z m 3.047,3.875 v -3.828 h 0.789 v -0.539 h -0.789 v -0.27 c 0,-0.562 0.117,-1.094 0.61,-1.094 0.179,0 0.296,0.036 0.378,0.071 l 0.118,-0.539 c -0.118,-0.071 -0.305,-0.117 -0.543,-0.117 -0.27,0 -0.621,0.093 -0.867,0.374 -0.317,0.364 -0.387,0.848 -0.387,1.317 v 0.258 H 92 v 0.539 h 0.551 v 3.828 z m -31.504,7.199 0.399,1.817 h 0.691 l -1.359,-6.082 h -0.762 l -1.387,6.082 h 0.668 l 0.399,-1.817 z m -1.242,-0.566 0.316,-1.539 c 0.083,-0.41 0.165,-0.926 0.235,-1.383 h 0.035 c 0.082,0.445 0.152,0.949 0.246,1.383 l 0.317,1.539 z m 2.996,2.383 h 0.696 v -2.418 c 0,-0.141 0.011,-0.282 0.023,-0.399 0.07,-0.504 0.398,-0.902 0.844,-0.902 0.047,0 0.093,0 0.14,0.011 v -0.718 c -0.047,0 -0.093,-0.012 -0.14,-0.012 -0.41,0 -0.774,0.34 -0.926,0.766 h -0.012 l -0.035,-0.696 h -0.625 c 0,0.328 0.035,0.766 0.035,1.129 z m 4.153,-0.645 c -0.165,0.082 -0.321,0.117 -0.508,0.117 -0.633,0 -1.032,-0.609 -1.032,-1.633 0,-0.855 0.317,-1.675 1.008,-1.675 0.235,0 0.414,0.07 0.508,0.117 l 0.129,-0.578 c -0.117,-0.071 -0.375,-0.129 -0.613,-0.129 -1.09,0 -1.723,1.023 -1.723,2.265 0,1.446 0.645,2.219 1.594,2.219 0.304,0 0.578,-0.082 0.73,-0.164 z m 0.679,0.645 h 0.703 v -2.817 c 0,-0.117 0,-0.234 0.024,-0.34 0.105,-0.457 0.351,-0.691 0.679,-0.691 0.458,0 0.575,0.504 0.575,1.031 v 2.817 h 0.703 v -2.899 c 0,-1.094 -0.469,-1.539 -1.02,-1.539 -0.258,0 -0.422,0.07 -0.586,0.164 -0.14,0.094 -0.269,0.223 -0.363,0.375 h -0.012 v -2.336 h -0.703 z m 6.168,-2.114 c 0.012,-0.117 0.012,-0.234 0.012,-0.398 0,-0.985 -0.352,-1.926 -1.242,-1.926 -0.879,0 -1.481,0.883 -1.481,2.301 0,1.34 0.543,2.195 1.598,2.195 0.34,0 0.703,-0.082 0.949,-0.211 l -0.105,-0.515 c -0.176,0.105 -0.422,0.175 -0.727,0.175 -0.504,0 -1.019,-0.293 -1.031,-1.621 z m -2.015,-0.515 c 0.023,-0.598 0.257,-1.27 0.703,-1.27 0.34,0 0.668,0.391 0.656,1.27 z m 4.043,-1.809 c -0.75,0 -1.469,0.672 -1.469,2.266 0,1.527 0.637,2.242 1.422,2.242 0.668,0 1.453,-0.563 1.453,-2.254 0,-1.524 -0.633,-2.254 -1.406,-2.254 z m -0.036,0.566 c 0.621,0 0.739,1.02 0.739,1.688 0,0.684 -0.118,1.703 -0.715,1.703 -0.633,0 -0.762,-0.973 -0.762,-1.703 0,-0.668 0.117,-1.688 0.738,-1.688 z m 2.207,3.872 h 0.704 v -6.235 h -0.704 z m 2.997,-4.438 c -0.75,0 -1.465,0.672 -1.465,2.266 0,1.527 0.632,2.242 1.418,2.242 0.668,0 1.453,-0.563 1.453,-2.254 0,-1.524 -0.633,-2.254 -1.406,-2.254 z m -0.036,0.566 c 0.621,0 0.739,1.02 0.739,1.688 0,0.684 -0.118,1.703 -0.715,1.703 -0.633,0 -0.762,-0.973 -0.762,-1.703 0,-0.668 0.117,-1.688 0.738,-1.688 z m 4.262,-0.496 -0.035,0.508 h -0.024 c -0.128,-0.273 -0.339,-0.578 -0.808,-0.578 -0.637,0 -1.375,0.672 -1.375,2.277 0,1.282 0.504,2.149 1.281,2.149 0.375,0 0.692,-0.188 0.844,-0.528 h 0.012 v 0.446 c 0,0.988 -0.34,1.328 -0.891,1.328 -0.352,0 -0.637,-0.094 -0.813,-0.188 l -0.164,0.539 c 0.235,0.129 0.586,0.223 0.965,0.223 0.481,0 0.903,-0.176 1.16,-0.469 0.282,-0.316 0.434,-0.75 0.434,-1.902 v -2.441 c 0,-0.668 0.023,-1.059 0.035,-1.364 z m -0.105,2.774 c 0,0.129 0,0.258 -0.036,0.398 -0.152,0.516 -0.421,0.621 -0.621,0.621 -0.433,0 -0.789,-0.504 -0.789,-1.621 0,-0.972 0.285,-1.64 0.789,-1.64 0.387,0 0.539,0.363 0.621,0.668 0.036,0.082 0.036,0.199 0.036,0.316 z m 2.351,1.594 v -4.368 h -0.703 v 4.368 z m -0.363,-5.938 c -0.223,0 -0.41,0.176 -0.41,0.445 0,0.27 0.175,0.457 0.398,0.457 0.258,0 0.434,-0.187 0.422,-0.457 0,-0.269 -0.164,-0.445 -0.41,-0.445 z m 3.355,5.293 c -0.164,0.082 -0.316,0.117 -0.504,0.117 -0.632,0 -1.031,-0.609 -1.031,-1.633 0,-0.855 0.317,-1.675 1.008,-1.675 0.234,0 0.41,0.07 0.504,0.117 l 0.129,-0.578 c -0.117,-0.071 -0.375,-0.129 -0.61,-0.129 -1.089,0 -1.722,1.023 -1.722,2.265 0,1.446 0.644,2.219 1.594,2.219 0.304,0 0.574,-0.082 0.726,-0.164 z m 3.067,0.645 c -0.047,-0.282 -0.047,-0.657 -0.047,-0.985 v -1.89 c 0,-0.985 -0.379,-1.563 -1.258,-1.563 -0.434,0 -0.832,0.152 -1.008,0.293 l 0.153,0.484 c 0.199,-0.129 0.445,-0.222 0.714,-0.222 0.551,0 0.692,0.41 0.692,0.984 v 0.141 c -0.985,0.011 -1.852,0.492 -1.852,1.586 0,0.75 0.446,1.242 1.032,1.242 0.375,0 0.679,-0.199 0.867,-0.528 h 0.023 l 0.047,0.458 z m -0.731,-1.372 c 0,0.071 0,0.164 -0.023,0.247 -0.082,0.433 -0.34,0.656 -0.645,0.656 -0.246,0 -0.527,-0.211 -0.527,-0.774 0,-0.953 0.832,-1.011 1.195,-1.011 z m 1.649,1.372 h 0.703 v -6.235 h -0.703 z"
       style="fill:#231f20;fill-opacity:1;fill-rule:nonzero;stroke:none"
       transform="scale(1.3333333)" />
    <path
       id="path8524"
       d="m 81.164,198.348 c -0.152,0.07 -0.387,0.129 -0.644,0.129 -0.739,0 -1.418,-0.61 -1.418,-2.465 0,-1.856 0.75,-2.489 1.406,-2.489 0.304,0 0.469,0.059 0.609,0.129 l 0.153,-0.586 c -0.129,-0.082 -0.387,-0.152 -0.762,-0.152 -0.949,0 -2.133,0.762 -2.133,3.156 0,2.067 0.844,3.032 2.027,3.032 0.375,0 0.68,-0.075 0.868,-0.168 z M 144.781,79.512 h 0.692 v -2.489 c 0.105,0.012 0.187,0.012 0.304,0.012 0.543,0 1.106,-0.223 1.434,-0.68 0.234,-0.304 0.375,-0.683 0.375,-1.246 0,-0.515 -0.152,-0.961 -0.445,-1.254 -0.317,-0.308 -0.786,-0.449 -1.352,-0.449 -0.398,0 -0.727,0.047 -1.008,0.117 z m 0.692,-5.492 c 0.093,-0.024 0.222,-0.047 0.386,-0.047 0.778,0 1.036,0.562 1.036,1.183 0,0.86 -0.457,1.305 -1.153,1.305 -0.117,0 -0.187,0 -0.269,-0.023 z m 3.898,1.054 c -0.75,0 -1.465,0.668 -1.465,2.266 0,1.527 0.633,2.242 1.418,2.242 0.668,0 1.453,-0.562 1.453,-2.254 0,-1.523 -0.632,-2.254 -1.406,-2.254 z m -0.035,0.563 c 0.621,0 0.738,1.023 0.738,1.691 0,0.684 -0.117,1.703 -0.715,1.703 -0.632,0 -0.761,-0.972 -0.761,-1.703 0,-0.668 0.117,-1.691 0.738,-1.691 z m 2.203,3.875 h 0.707 v -6.235 h -0.707 z m 1.723,0 h 0.703 v -6.235 h -0.703 z m 4.242,-2.114 c 0.012,-0.117 0.012,-0.234 0.012,-0.398 0,-0.984 -0.352,-1.926 -1.243,-1.926 -0.878,0 -1.476,0.883 -1.476,2.301 0,1.34 0.539,2.195 1.594,2.195 0.339,0 0.703,-0.082 0.949,-0.211 l -0.106,-0.515 c -0.175,0.105 -0.422,0.176 -0.726,0.176 -0.504,0 -1.02,-0.293 -1.031,-1.622 z m -2.016,-0.515 c 0.024,-0.598 0.258,-1.27 0.703,-1.27 0.34,0 0.668,0.391 0.657,1.27 z m 2.766,2.629 h 0.703 v -2.746 c 0,-0.153 0,-0.282 0.023,-0.387 0.094,-0.469 0.364,-0.719 0.657,-0.719 0.504,0 0.597,0.531 0.597,1.035 v 2.817 h 0.704 v -2.934 c 0,-1.047 -0.458,-1.504 -1.055,-1.504 -0.457,0 -0.809,0.246 -1.008,0.598 h -0.012 l -0.035,-0.527 h -0.609 c 0.011,0.351 0.035,0.621 0.035,1.128 z m 7.418,0 c -0.047,-0.282 -0.047,-0.657 -0.047,-0.985 v -1.89 c 0,-0.989 -0.375,-1.563 -1.258,-1.563 -0.433,0 -0.832,0.153 -1.008,0.293 l 0.153,0.485 c 0.199,-0.133 0.445,-0.227 0.715,-0.227 0.554,0 0.695,0.414 0.695,0.988 v 0.141 c -0.988,0.012 -1.856,0.492 -1.856,1.586 0,0.75 0.446,1.242 1.032,1.242 0.375,0 0.683,-0.199 0.871,-0.527 h 0.023 l 0.047,0.457 z m -0.727,-1.371 c 0,0.07 0,0.164 -0.023,0.246 -0.082,0.433 -0.344,0.656 -0.649,0.656 -0.246,0 -0.527,-0.211 -0.527,-0.773 0,-0.954 0.832,-1.012 1.199,-1.012 z m 1.367,1.171 c 0.188,0.153 0.54,0.258 0.868,0.258 0.703,0 1.304,-0.422 1.304,-1.3 0,-0.602 -0.402,-1 -0.906,-1.329 -0.433,-0.293 -0.539,-0.457 -0.539,-0.75 0,-0.281 0.188,-0.554 0.563,-0.554 0.234,0 0.421,0.082 0.586,0.191 l 0.191,-0.531 c -0.191,-0.106 -0.449,-0.223 -0.789,-0.223 -0.68,0 -1.195,0.504 -1.195,1.211 0,0.504 0.304,0.879 0.867,1.242 0.445,0.293 0.562,0.532 0.562,0.86 0,0.386 -0.246,0.633 -0.644,0.633 -0.27,0 -0.539,-0.129 -0.703,-0.223 z m 2.602,0 c 0.188,0.153 0.539,0.258 0.867,0.258 0.703,0 1.301,-0.422 1.301,-1.3 0,-0.602 -0.398,-1 -0.902,-1.329 -0.434,-0.293 -0.539,-0.457 -0.539,-0.75 0,-0.281 0.187,-0.554 0.562,-0.554 0.235,0 0.422,0.082 0.586,0.191 l 0.188,-0.531 c -0.188,-0.106 -0.446,-0.223 -0.786,-0.223 -0.679,0 -1.195,0.504 -1.195,1.211 0,0.504 0.305,0.879 0.867,1.242 0.446,0.293 0.563,0.532 0.563,0.86 0,0.386 -0.246,0.633 -0.645,0.633 -0.269,0 -0.539,-0.129 -0.703,-0.223 z m 5.406,-1.914 c 0.012,-0.117 0.012,-0.234 0.012,-0.398 0,-0.984 -0.352,-1.926 -1.242,-1.926 -0.879,0 -1.481,0.883 -1.481,2.301 0,1.34 0.543,2.195 1.598,2.195 0.34,0 0.703,-0.082 0.949,-0.211 l -0.105,-0.515 c -0.176,0.105 -0.422,0.176 -0.727,0.176 -0.504,0 -1.019,-0.293 -1.031,-1.622 z m -2.015,-0.515 c 0.023,-0.598 0.257,-1.27 0.703,-1.27 0.34,0 0.668,0.391 0.656,1.27 z m 2.761,2.629 h 0.696 v -2.77 c 0,-0.129 0.011,-0.258 0.023,-0.375 0.082,-0.457 0.375,-0.707 0.645,-0.707 0.515,0 0.609,0.508 0.609,1 v 2.852 h 0.68 v -2.805 c 0,-0.141 0.011,-0.281 0.035,-0.398 0.094,-0.399 0.351,-0.649 0.633,-0.649 0.527,0 0.609,0.555 0.609,1.117 v 2.735 h 0.692 v -2.899 c 0,-1.105 -0.458,-1.539 -1.043,-1.539 -0.235,0 -0.434,0.059 -0.61,0.176 -0.164,0.105 -0.316,0.281 -0.433,0.492 h -0.012 c -0.164,-0.469 -0.504,-0.668 -0.914,-0.668 -0.457,0 -0.785,0.258 -0.985,0.61 h -0.011 l -0.035,-0.539 h -0.614 c 0.012,0.351 0.035,0.621 0.035,1.128 z m 6.141,0 0.047,-0.563 h 0.023 c 0.176,0.363 0.411,0.633 0.868,0.633 0.679,0 1.324,-0.715 1.324,-2.301 0,-1.418 -0.516,-2.207 -1.184,-2.207 -0.375,0 -0.691,0.153 -0.926,0.586 h -0.011 v -2.383 h -0.696 v 5.192 c 0,0.293 -0.035,0.785 -0.035,1.043 z m 0.141,-2.758 c 0,-0.094 0,-0.211 0.011,-0.305 0.059,-0.375 0.329,-0.777 0.657,-0.777 0.55,0 0.761,0.777 0.761,1.644 0,0.93 -0.199,1.692 -0.761,1.692 -0.188,0 -0.481,-0.117 -0.645,-0.762 -0.023,-0.07 -0.023,-0.176 -0.023,-0.269 z m 2.902,2.758 h 0.703 v -6.235 h -0.703 z m 4.078,0 c -0.047,-0.282 -0.047,-0.657 -0.047,-0.985 v -1.89 c 0,-0.989 -0.375,-1.563 -1.254,-1.563 -0.437,0 -0.836,0.153 -1.011,0.293 l 0.152,0.485 c 0.199,-0.133 0.445,-0.227 0.719,-0.227 0.551,0 0.691,0.414 0.691,0.988 v 0.141 c -0.988,0.012 -1.855,0.492 -1.855,1.586 0,0.75 0.445,1.242 1.031,1.242 0.379,0 0.684,-0.199 0.871,-0.527 h 0.023 l 0.047,0.457 z m -0.726,-1.371 c 0,0.07 0,0.164 -0.024,0.246 -0.082,0.433 -0.34,0.656 -0.644,0.656 -0.25,0 -0.532,-0.211 -0.532,-0.773 0,-0.954 0.836,-1.012 1.2,-1.012 z m 3.699,-2.996 -0.035,0.503 h -0.024 c -0.129,-0.269 -0.34,-0.574 -0.808,-0.574 -0.633,0 -1.375,0.668 -1.375,2.278 0,1.281 0.507,2.148 1.281,2.148 0.375,0 0.691,-0.188 0.844,-0.527 h 0.011 v 0.445 c 0,0.988 -0.34,1.328 -0.89,1.328 -0.352,0 -0.633,-0.094 -0.809,-0.187 l -0.164,0.539 c 0.234,0.129 0.586,0.222 0.961,0.222 0.48,0 0.902,-0.175 1.16,-0.468 0.281,-0.317 0.434,-0.75 0.434,-1.903 v -2.441 c 0,-0.668 0.023,-1.059 0.035,-1.363 z m -0.106,2.773 c 0,0.129 0,0.258 -0.035,0.398 -0.152,0.516 -0.422,0.622 -0.621,0.622 -0.434,0 -0.785,-0.504 -0.785,-1.622 0,-0.972 0.281,-1.644 0.785,-1.644 0.387,0 0.539,0.367 0.621,0.672 0.035,0.082 0.035,0.199 0.035,0.316 z m 4.168,-0.52 c 0.012,-0.117 0.012,-0.234 0.012,-0.398 0,-0.984 -0.352,-1.926 -1.246,-1.926 -0.879,0 -1.477,0.883 -1.477,2.301 0,1.34 0.539,2.195 1.594,2.195 0.34,0 0.707,-0.082 0.953,-0.211 l -0.105,-0.515 c -0.176,0.105 -0.426,0.176 -0.731,0.176 -0.504,0 -1.019,-0.293 -1.031,-1.622 z m -2.019,-0.515 c 0.023,-0.598 0.258,-1.27 0.703,-1.27 0.34,0 0.668,0.391 0.656,1.27 z M 156.27,92.258 h 0.691 v -2.16 h 0.012 c 0.117,0.246 0.351,0.504 0.761,0.504 0.684,0 1.352,-0.645 1.352,-2.266 0,-1.434 -0.504,-2.242 -1.254,-2.242 -0.355,0 -0.695,0.164 -0.93,0.633 h -0.011 l -0.036,-0.563 h -0.621 c 0,0.305 0.036,0.691 0.036,1.363 z m 0.691,-4.438 c 0,-0.117 0,-0.222 0.012,-0.34 0.047,-0.39 0.328,-0.789 0.644,-0.789 0.555,0 0.766,0.754 0.766,1.657 0,0.879 -0.176,1.679 -0.754,1.679 -0.188,0 -0.504,-0.117 -0.645,-0.738 -0.023,-0.098 -0.023,-0.227 -0.023,-0.367 z m 2.902,2.711 h 0.696 v -2.418 c 0,-0.14 0.011,-0.281 0.023,-0.398 0.07,-0.504 0.398,-0.906 0.844,-0.906 0.047,0 0.094,0 0.14,0.011 v -0.715 c -0.046,0 -0.093,-0.011 -0.14,-0.011 -0.41,0 -0.774,0.34 -0.926,0.761 h -0.012 l -0.035,-0.691 h -0.625 c 0,0.328 0.035,0.762 0.035,1.129 z m 3.387,-4.437 c -0.75,0 -1.465,0.668 -1.465,2.265 0,1.528 0.633,2.243 1.418,2.243 0.672,0 1.457,-0.563 1.457,-2.254 0,-1.528 -0.633,-2.254 -1.41,-2.254 z m -0.035,0.562 c 0.625,0 0.742,1.024 0.742,1.692 0,0.679 -0.117,1.703 -0.719,1.703 -0.633,0 -0.761,-0.977 -0.761,-1.703 0,-0.668 0.117,-1.692 0.738,-1.692 z m 2.207,5.602 h 0.691 v -2.16 h 0.012 c 0.117,0.246 0.352,0.504 0.762,0.504 0.679,0 1.351,-0.645 1.351,-2.266 0,-1.434 -0.508,-2.242 -1.258,-2.242 -0.351,0 -0.691,0.164 -0.925,0.633 h -0.012 l -0.035,-0.563 h -0.621 c 0,0.305 0.035,0.691 0.035,1.363 z m 0.691,-4.438 c 0,-0.117 0,-0.222 0.012,-0.34 0.047,-0.39 0.328,-0.789 0.645,-0.789 0.55,0 0.761,0.754 0.761,1.657 0,0.879 -0.176,1.679 -0.75,1.679 -0.187,0 -0.504,-0.117 -0.644,-0.738 -0.024,-0.098 -0.024,-0.227 -0.024,-0.367 z m 5.426,0.598 c 0.012,-0.117 0.012,-0.234 0.012,-0.398 0,-0.989 -0.352,-1.926 -1.246,-1.926 -0.879,0 -1.477,0.879 -1.477,2.301 0,1.339 0.539,2.195 1.594,2.195 0.344,0 0.707,-0.082 0.953,-0.211 l -0.105,-0.516 c -0.176,0.106 -0.422,0.176 -0.727,0.176 -0.508,0 -1.023,-0.293 -1.035,-1.621 z m -2.019,-0.516 c 0.023,-0.597 0.257,-1.269 0.703,-1.269 0.343,0 0.672,0.387 0.66,1.269 z m 2.765,2.629 h 0.692 v -2.418 c 0,-0.14 0.011,-0.281 0.023,-0.398 0.07,-0.504 0.398,-0.906 0.844,-0.906 0.047,0 0.094,0 0.14,0.011 v -0.715 c -0.046,0 -0.093,-0.011 -0.14,-0.011 -0.41,0 -0.774,0.34 -0.926,0.761 h -0.012 l -0.035,-0.691 h -0.621 c 0,0.328 0.035,0.762 0.035,1.129 z m 2.617,-5.316 v 0.949 h -0.539 v 0.539 h 0.539 v 2.524 c 0,0.601 0.082,0.894 0.258,1.093 0.164,0.188 0.41,0.27 0.68,0.27 0.222,0 0.387,-0.035 0.515,-0.082 l -0.023,-0.528 c -0.082,0.024 -0.176,0.024 -0.281,0.024 -0.258,0 -0.457,-0.152 -0.457,-0.715 v -2.586 h 0.832 v -0.539 h -0.832 v -1.152 z m 2.836,5.316 v -4.367 h -0.707 v 4.367 z m -0.367,-5.941 c -0.223,0 -0.41,0.176 -0.41,0.445 0,0.274 0.176,0.461 0.398,0.461 0.262,0 0.438,-0.187 0.426,-0.461 0,-0.269 -0.164,-0.445 -0.414,-0.445 z m 3.84,3.828 c 0.012,-0.117 0.012,-0.234 0.012,-0.398 0,-0.989 -0.352,-1.926 -1.243,-1.926 -0.878,0 -1.48,0.879 -1.48,2.301 0,1.339 0.543,2.195 1.598,2.195 0.34,0 0.703,-0.082 0.949,-0.211 l -0.106,-0.516 c -0.175,0.106 -0.421,0.176 -0.726,0.176 -0.504,0 -1.02,-0.293 -1.031,-1.621 z m -2.016,-0.516 c 0.024,-0.597 0.258,-1.269 0.703,-1.269 0.34,0 0.668,0.387 0.657,1.269 z m 2.481,2.43 c 0.187,0.152 0.543,0.258 0.871,0.258 0.703,0 1.301,-0.422 1.301,-1.301 0,-0.601 -0.399,-1 -0.903,-1.328 -0.433,-0.293 -0.539,-0.457 -0.539,-0.75 0,-0.285 0.188,-0.555 0.563,-0.555 0.234,0 0.422,0.082 0.586,0.188 l 0.187,-0.528 c -0.187,-0.105 -0.445,-0.222 -0.785,-0.222 -0.68,0 -1.199,0.504 -1.199,1.211 0,0.504 0.304,0.879 0.871,1.242 0.445,0.293 0.562,0.527 0.562,0.859 0,0.387 -0.246,0.633 -0.644,0.633 -0.27,0 -0.543,-0.129 -0.707,-0.223 z m -32.383,37.262 v 6.082 h 0.695 v -2.84 h 1.7 v 2.84 h 0.703 v -6.082 h -0.703 v 2.609 h -1.7 v -2.609 z m 6.727,1.715 h -0.692 v 2.875 c 0,0.156 -0.012,0.285 -0.035,0.402 -0.035,0.199 -0.211,0.574 -0.621,0.574 -0.481,0 -0.586,-0.504 -0.586,-1.187 v -2.664 h -0.691 v 2.757 c 0,1.082 0.293,1.68 1.066,1.68 0.457,0 0.797,-0.316 0.926,-0.527 h 0.023 l 0.047,0.457 h 0.598 c -0.012,-0.328 -0.035,-0.703 -0.035,-1.184 z m 0.972,4.367 h 0.692 v -2.77 c 0,-0.129 0.011,-0.258 0.023,-0.375 0.082,-0.461 0.375,-0.707 0.645,-0.707 0.515,0 0.609,0.508 0.609,1 v 2.852 h 0.68 v -2.805 c 0,-0.141 0.011,-0.281 0.035,-0.398 0.094,-0.403 0.351,-0.649 0.636,-0.649 0.528,0 0.61,0.555 0.61,1.117 v 2.735 h 0.691 v -2.899 c 0,-1.105 -0.457,-1.539 -1.043,-1.539 -0.234,0 -0.433,0.059 -0.613,0.176 -0.164,0.106 -0.316,0.281 -0.434,0.492 h -0.011 c -0.164,-0.468 -0.504,-0.668 -0.914,-0.668 -0.457,0 -0.786,0.258 -0.985,0.61 h -0.011 l -0.036,-0.539 h -0.609 c 0.012,0.351 0.035,0.621 0.035,1.129 z m 7.942,0 c -0.047,-0.281 -0.047,-0.656 -0.047,-0.985 v -1.89 c 0,-0.989 -0.375,-1.563 -1.254,-1.563 -0.434,0 -0.832,0.153 -1.008,0.293 l 0.152,0.481 c 0.2,-0.129 0.446,-0.223 0.715,-0.223 0.551,0 0.692,0.414 0.692,0.988 v 0.141 c -0.985,0.012 -1.852,0.492 -1.852,1.586 0,0.75 0.445,1.242 1.031,1.242 0.375,0 0.68,-0.199 0.867,-0.527 h 0.024 l 0.047,0.457 z m -0.727,-1.371 c 0,0.07 0,0.164 -0.023,0.246 -0.082,0.433 -0.34,0.656 -0.645,0.656 -0.246,0 -0.527,-0.211 -0.527,-0.773 0,-0.954 0.832,-1.012 1.195,-1.012 z m 1.648,1.371 h 0.704 v -2.746 c 0,-0.153 0,-0.282 0.023,-0.387 0.094,-0.473 0.363,-0.719 0.656,-0.719 0.504,0 0.598,0.531 0.598,1.035 v 2.817 h 0.707 v -2.934 c 0,-1.047 -0.461,-1.504 -1.059,-1.504 -0.457,0 -0.808,0.246 -1.007,0.598 h -0.012 l -0.035,-0.527 h -0.61 c 0.012,0.351 0.035,0.621 0.035,1.129 z m 5.766,0 v -4.367 h -0.703 v 4.367 z m -0.363,-5.942 c -0.223,0 -0.41,0.176 -0.41,0.45 0,0.269 0.175,0.457 0.398,0.457 0.258,0 0.434,-0.188 0.422,-0.457 0,-0.274 -0.164,-0.45 -0.41,-0.45 z m 1.316,5.942 h 0.692 v -2.77 c 0,-0.129 0.011,-0.258 0.023,-0.375 0.082,-0.461 0.375,-0.707 0.645,-0.707 0.515,0 0.609,0.508 0.609,1 v 2.852 h 0.68 v -2.805 c 0,-0.141 0.011,-0.281 0.035,-0.398 0.094,-0.403 0.351,-0.649 0.633,-0.649 0.531,0 0.613,0.555 0.613,1.117 v 2.735 h 0.691 v -2.899 c 0,-1.105 -0.457,-1.539 -1.047,-1.539 -0.234,0 -0.433,0.059 -0.609,0.176 -0.164,0.106 -0.316,0.281 -0.434,0.492 h -0.011 c -0.164,-0.468 -0.504,-0.668 -0.914,-0.668 -0.457,0 -0.785,0.258 -0.985,0.61 h -0.011 l -0.036,-0.539 h -0.609 c 0.012,0.351 0.035,0.621 0.035,1.129 z m 5.586,1.726 h 0.692 v -2.16 h 0.011 c 0.117,0.246 0.352,0.504 0.762,0.504 0.68,0 1.348,-0.644 1.348,-2.266 0,-1.433 -0.504,-2.242 -1.254,-2.242 -0.352,0 -0.692,0.164 -0.926,0.633 h -0.012 l -0.035,-0.562 h -0.621 c 0,0.304 0.035,0.691 0.035,1.363 z m 0.692,-4.437 c 0,-0.117 0,-0.223 0.011,-0.34 0.047,-0.387 0.328,-0.789 0.645,-0.789 0.551,0 0.762,0.754 0.762,1.656 0,0.883 -0.176,1.68 -0.75,1.68 -0.188,0 -0.504,-0.117 -0.645,-0.738 -0.023,-0.094 -0.023,-0.227 -0.023,-0.368 z m 5.257,2.711 c -0.047,-0.281 -0.047,-0.656 -0.047,-0.985 v -1.89 c 0,-0.989 -0.374,-1.563 -1.253,-1.563 -0.434,0 -0.832,0.153 -1.008,0.293 l 0.152,0.481 c 0.199,-0.129 0.445,-0.223 0.715,-0.223 0.551,0 0.691,0.414 0.691,0.988 v 0.141 c -0.984,0.012 -1.851,0.492 -1.851,1.586 0,0.75 0.445,1.242 1.031,1.242 0.375,0 0.68,-0.199 0.867,-0.527 h 0.024 l 0.047,0.457 z m -0.726,-1.371 c 0,0.07 0,0.164 -0.024,0.246 -0.082,0.433 -0.339,0.656 -0.644,0.656 -0.246,0 -0.527,-0.211 -0.527,-0.773 0,-0.954 0.832,-1.012 1.195,-1.012 z m 3.691,0.726 c -0.164,0.082 -0.316,0.117 -0.508,0.117 -0.632,0 -1.031,-0.609 -1.031,-1.632 0,-0.856 0.317,-1.68 1.008,-1.68 0.238,0 0.414,0.07 0.508,0.117 l 0.129,-0.574 c -0.118,-0.07 -0.375,-0.129 -0.614,-0.129 -1.089,0 -1.722,1.023 -1.722,2.266 0,1.445 0.644,2.218 1.594,2.218 0.308,0 0.578,-0.082 0.73,-0.164 z m 0.977,-4.672 v 0.95 h -0.539 v 0.539 h 0.539 v 2.527 c 0,0.598 0.082,0.891 0.258,1.09 0.164,0.187 0.41,0.269 0.679,0.269 0.227,0 0.391,-0.035 0.52,-0.082 l -0.024,-0.527 c -0.082,0.023 -0.175,0.023 -0.281,0.023 -0.262,0 -0.461,-0.152 -0.461,-0.714 v -2.586 h 0.836 v -0.539 h -0.836 v -1.149 z m -24.133,13.223 c 0.012,-0.117 0.012,-0.234 0.012,-0.398 0,-0.989 -0.352,-1.926 -1.242,-1.926 -0.883,0 -1.481,0.879 -1.481,2.301 0,1.336 0.539,2.195 1.598,2.195 0.34,0 0.703,-0.082 0.949,-0.211 l -0.106,-0.52 c -0.175,0.106 -0.421,0.18 -0.726,0.18 -0.504,0 -1.024,-0.297 -1.035,-1.621 z m -2.02,-0.516 c 0.024,-0.601 0.258,-1.269 0.707,-1.269 0.34,0 0.668,0.387 0.657,1.269 z m 2.403,-1.738 1.137,4.367 h 0.624 l 1.137,-4.367 h -0.691 l -0.539,2.453 c -0.059,0.34 -0.133,0.703 -0.18,1.067 h -0.035 c -0.047,-0.375 -0.117,-0.762 -0.188,-1.067 l -0.55,-2.453 z m 5.894,2.254 c 0.012,-0.117 0.012,-0.234 0.012,-0.398 0,-0.989 -0.352,-1.926 -1.242,-1.926 -0.883,0 -1.481,0.879 -1.481,2.301 0,1.336 0.539,2.195 1.598,2.195 0.34,0 0.703,-0.082 0.949,-0.211 l -0.105,-0.52 c -0.176,0.106 -0.422,0.18 -0.727,0.18 -0.504,0 -1.023,-0.297 -1.035,-1.621 z m -2.019,-0.516 c 0.023,-0.601 0.262,-1.269 0.707,-1.269 0.34,0 0.668,0.387 0.656,1.269 z m 2.765,2.629 h 0.704 v -2.75 c 0,-0.152 0,-0.281 0.023,-0.386 0.098,-0.469 0.367,-0.715 0.66,-0.715 0.504,0 0.598,0.527 0.598,1.031 v 2.82 h 0.703 v -2.937 c 0,-1.043 -0.457,-1.5 -1.055,-1.5 -0.457,0 -0.808,0.246 -1.012,0.597 h -0.011 l -0.035,-0.527 h -0.61 c 0.012,0.352 0.035,0.621 0.035,1.125 z m 3.762,-5.32 v 0.953 h -0.539 v 0.539 h 0.539 v 2.524 c 0,0.597 0.082,0.894 0.258,1.093 0.164,0.188 0.41,0.27 0.68,0.27 0.222,0 0.386,-0.035 0.515,-0.082 l -0.023,-0.527 c -0.082,0.023 -0.176,0.023 -0.281,0.023 -0.258,0 -0.457,-0.156 -0.457,-0.719 v -2.582 h 0.832 v -0.539 h -0.832 v -1.152 z m 1.852,5.121 c 0.187,0.152 0.539,0.258 0.867,0.258 0.703,0 1.305,-0.422 1.305,-1.305 0,-0.597 -0.403,-0.996 -0.907,-1.324 -0.433,-0.297 -0.539,-0.461 -0.539,-0.754 0,-0.281 0.188,-0.551 0.563,-0.551 0.234,0 0.422,0.082 0.586,0.188 l 0.187,-0.528 c -0.187,-0.105 -0.445,-0.222 -0.785,-0.222 -0.68,0 -1.195,0.504 -1.195,1.207 0,0.504 0.304,0.883 0.867,1.246 0.445,0.293 0.562,0.527 0.562,0.855 0,0.387 -0.246,0.637 -0.644,0.637 -0.27,0 -0.539,-0.133 -0.703,-0.226 z"
       style="fill:#231f20;fill-opacity:1;fill-rule:nonzero;stroke:none"
       transform="scale(1.3333333)" />
    <g
       id="g8935">
      <path
         d="m 174.539,194.09 c 0.016,-0.16 -0.035,-0.219 -0.184,-0.223 -0.308,-0.008 -0.558,0.11 -0.765,0.348 -0.231,0.265 -0.492,0.473 -0.836,0.515 -0.438,0.059 -0.813,-0.085 -1.113,-0.433 -0.196,-0.223 -0.407,-0.399 -0.7,-0.426 -0.359,-0.031 -0.629,0.137 -0.863,0.414 -0.387,0.449 -0.863,0.617 -1.394,0.395 -0.231,-0.102 -0.438,-0.305 -0.625,-0.492 -0.254,-0.25 -0.536,-0.364 -0.868,-0.305 -0.242,0.043 -0.421,0.199 -0.586,0.383 -0.351,0.39 -0.781,0.531 -1.257,0.379 -0.203,-0.067 -0.395,-0.211 -0.563,-0.356 -0.293,-0.254 -0.605,-0.359 -0.961,-0.227 -0.054,0.024 -0.113,0.114 -0.117,0.172 -0.008,0.161 0.012,0.325 0.023,0.489 0.047,0 0.082,0.007 0.118,0 0.437,-0.094 0.82,0.023 1.156,0.347 0.453,0.442 0.965,0.426 1.394,-0.039 0.602,-0.648 1.344,-0.644 1.938,0.008 0.519,0.566 1.031,0.563 1.551,-0.004 0.59,-0.648 1.328,-0.652 1.922,-0.012 0.519,0.555 1.023,0.559 1.535,-0.003 0.316,-0.352 0.695,-0.508 1.168,-0.461 0.008,-0.176 0.008,-0.325 0.027,-0.469 m -9.207,-4.801 c 0.348,-0.254 0.73,-0.449 1.106,-0.656 0.093,-0.051 0.144,-0.094 0.132,-0.211 -0.074,-0.797 -0.14,-1.594 -0.222,-2.391 -0.008,-0.07 -0.086,-0.16 -0.149,-0.183 -0.996,-0.383 -2.152,0.168 -2.597,1.23 -0.45,1.078 -0.086,2.367 0.828,2.953 0.027,0.016 0.054,0.028 0.062,0.031 0.285,-0.265 0.539,-0.554 0.84,-0.773 m 9.543,-1.285 c -0.023,-0.988 -0.484,-1.703 -1.324,-2.102 -0.5,-0.234 -1.02,-0.23 -1.531,-0.027 -0.067,0.027 -0.153,0.117 -0.161,0.187 -0.082,0.774 -0.148,1.543 -0.218,2.317 -0.016,0.137 0.023,0.203 0.148,0.254 0.758,0.305 1.399,0.797 1.941,1.48 0.754,-0.48 1.168,-1.179 1.145,-2.109 m -0.488,3.238 c 0.367,0.871 0.492,1.793 0.472,2.742 -0.023,1.2 -0.222,2.371 -0.488,3.528 -0.594,2.636 -1.457,5.172 -2.433,7.664 -0.075,0.191 -0.168,0.262 -0.36,0.262 -1.625,-0.008 -3.25,-0.004 -4.875,-0.004 -0.308,0 -0.316,0 -0.43,-0.313 -0.507,-1.433 -1.046,-2.851 -1.511,-4.297 -0.68,-2.117 -1.25,-4.273 -1.383,-6.527 -0.059,-0.938 0.031,-1.852 0.34,-2.735 0.051,-0.148 0.109,-0.296 0.164,-0.441 -1.469,-1.008 -1.875,-2.742 -1.461,-4.082 0.558,-1.812 1.785,-2.594 3.512,-2.539 0,-0.02 0.004,-0.039 0,-0.055 -0.047,-0.121 -0.09,-0.242 -0.137,-0.359 -0.098,-0.25 -0.039,-0.348 0.215,-0.348 2.047,0 4.093,0 6.14,0 0.036,0 0.075,0 0.11,0 0.179,0.016 0.238,0.117 0.168,0.305 -0.059,0.156 -0.121,0.316 -0.184,0.488 1.824,-0.226 3.059,0.949 3.524,2.184 0.519,1.375 0.222,3.379 -1.411,4.437 0.008,0.028 0.016,0.059 0.028,0.09"
         style="fill:#4f4c4d;fill-opacity:1;fill-rule:nonzero;stroke:none"
         transform="scale(1.3333333)"
         clip-path="url(#clipPath8934)"
         id="path8935" />
    </g>
    <g
       id="g8937">
      <path
         d="m 167.117,202.996 c 0,0 0.531,0.176 0.875,0 0.34,-0.176 0.719,-0.375 0.719,-0.375"
         style="fill:#4f4c4d;fill-opacity:1;fill-rule:nonzero;stroke:none"
         transform="scale(1.3333333)"
         clip-path="url(#clipPath8936)"
         id="path8937" />
    </g>
    <g
       id="g8939">
      <path
         d="m 172.868,-189.488 c -0.27,-0.293 -0.583,-0.735 -0.591,-1.282 -0.007,-0.574 0.321,-0.863 0.208,-1.316 -0.063,-0.262 -0.282,-0.602 -0.97,-0.902"
         style="fill:#4f4c4d;fill-opacity:1;fill-rule:nonzero;stroke:#ffffff;stroke-width:0.400756;stroke-linecap:round;stroke-linejoin:round;stroke-miterlimit:10;stroke-dasharray:none;stroke-opacity:1"
         transform="scale(1.3319427,-1.3333333)"
         clip-path="url(#clipPath8938)"
         id="path8939" />
    </g>
    <g
       id="g8941">
      <path
         d="m 173.767,-191.914 c 0.004,0.094 0.008,0.836 -0.59,1.316 -0.387,0.317 -0.817,0.344 -0.97,0.348"
         style="fill:#4f4c4d;fill-opacity:1;fill-rule:nonzero;stroke:#ffffff;stroke-width:0.400756;stroke-linecap:round;stroke-linejoin:round;stroke-miterlimit:10;stroke-dasharray:none;stroke-opacity:1"
         transform="scale(1.3319427,-1.3333333)"
         clip-path="url(#clipPath8940)"
         id="path8941" />
    </g>
    <g
       id="g8943">
      <path
         d="m 165.657,-203.902 c 0.626,0.316 1.208,0.754 1.248,1.316 0.043,0.547 -0.462,0.828 -0.309,1.246 0.176,0.485 0.942,0.348 1.419,0.969 0.25,0.324 0.305,0.703 0.313,0.973"
         style="fill:#4f4c4d;fill-opacity:1;fill-rule:nonzero;stroke:#ffffff;stroke-width:0.400756;stroke-linecap:round;stroke-linejoin:round;stroke-miterlimit:10;stroke-dasharray:none;stroke-opacity:1"
         transform="scale(1.3319427,-1.3333333)"
         clip-path="url(#clipPath8942)"
         id="path8943" />
    </g>
    <g
       id="g8945">
      <path
         d="m 167.01,-200.82 c 0.008,0.132 0.012,0.597 -0.313,1.039 -0.352,0.48 -0.848,0.597 -0.969,0.625"
         style="fill:#4f4c4d;fill-opacity:1;fill-rule:nonzero;stroke:#ffffff;stroke-width:0.400756;stroke-linecap:round;stroke-linejoin:round;stroke-miterlimit:10;stroke-dasharray:none;stroke-opacity:1"
         transform="scale(1.3319427,-1.3333333)"
         clip-path="url(#clipPath8944)"
         id="path8945" />
    </g>
  </g>
</svg>
